<?xml version="1.0" encoding="utf-8"?>
<!-- Generator: Adobe Illustrator 16.0.0, SVG Export Plug-In . SVG Version: 6.00 Build 0)  -->
<!DOCTYPE svg PUBLIC "-//W3C//DTD SVG 1.1//EN" "http://www.w3.org/Graphics/SVG/1.1/DTD/svg11.dtd">
<svg version="1.1" id="Layer_1" xmlns="http://www.w3.org/2000/svg" xmlns:xlink="http://www.w3.org/1999/xlink" x="0px" y="0px"
	 width="273.333px" height="273.333px" viewBox="0 0 273.333 273.333" enable-background="new 0 0 273.333 273.333"
	 xml:space="preserve">
<g>
	<g id="XMLID_1_">
		<g>
			<path d="M136.017,26.297l118.03,20.4c0,0-14.02,12.63-18.75,33.72c-0.38,1.68-0.84,3.85-1.37,6.4l-17.359,83.19
				c-0.74,3.31-1.471,6.54-2.2,9.649c-4.29,18.46,12.83,31.88,12.83,31.88l-5.561,1.011v34.489h-171.6v-34.56l-5.2-0.94
				c0,0,17.12-13.42,12.83-31.88c-0.72-3.109-1.46-6.35-2.2-9.67l-17.35-83.18c-0.54-2.55-1-4.72-1.37-6.39
				c-4.74-21.09-18.76-33.72-18.76-33.72L136.017,26.297z"/>
		</g>
		<g>
		</g>
	</g>
	<path fill="#FFFFFF" d="M136.021,33.364c-0.864,0.138-94.154,15.303-104.893,17.049c2.659,2.322,19.195,16.905,20.724,30.675
		c0,0,13.381,86.535,15.679,101.435c2.301,14.896-10.209,25.186-10.209,25.186l78.699,13.191l78.689-13.191
		c0,0-12.506-10.289-10.209-25.186c2.305-14.9,15.686-101.435,15.686-101.435c1.522-13.771,18.065-28.354,20.721-30.675
		C230.171,48.667,136.882,33.502,136.021,33.364"/>
	<path fill="#F39913" d="M80.133,124.294c0-19.846,10.391-37.23,26.001-47.122l-2.762-32.239l-59.483,9.82
		c0,0,13.274,11.545,14.986,26.956c0,0,13.103,93.292,14.825,103.74c1.708,10.442-3.768,18.062-3.768,18.062l46.974,7.688
		l-3.028-35.651C94.024,167,80.133,147.272,80.133,124.294"/>
	<path fill="#F39913" d="M191.336,124.294c0-19.846-10.392-37.23-26.001-47.122l2.759-32.239l59.479,9.82
		c0,0-13.267,11.545-14.982,26.956c0,0-13.099,93.292-14.821,103.74c-1.715,10.442,3.769,18.062,3.769,18.062l-46.974,7.688
		l3.027-35.651C177.442,167,191.336,147.272,191.336,124.294"/>
	<path d="M182.206,124.294c0-20.421-13.229-37.739-31.584-43.881l1.395-38.073l-15.996-2.728l-16.174,2.728l1.392,38.073
		c-18.355,6.142-31.578,23.459-31.578,43.881c0,21.606,14.797,39.744,34.818,44.838l1.602,43.806l9.94,1.719l9.751-1.719
		l1.602-43.806C167.399,164.042,182.206,145.905,182.206,124.294"/>
	<path fill="#FFFFFF" d="M149.912,128.014h-9.692c-5.06,0-5.232,5.287-9.213,5.287h-16.185c-2.291,0-1.037-3.968-1.037-3.968
		s-0.072,0,6.682-26.693c0.227-0.865,2.146-0.958,2.146-0.958h15.806c2.697,0,2.625,5.314,6.775,5.314h9.406l2.17-9.716h-44.432
		c-1.88,0-2.738,1.061-3.107,2.896c-0.626,3.079-5.618,23.418-7.416,31.085c-1.481,6.324,4.157,6.438,4.157,6.438h41.783
		L149.912,128.014z"/>
	<path fill="#FFFFFF" d="M162.563,141.485h-9.692c-5.057,0-5.229,5.294-9.214,5.294h-16.185c-2.291,0-1.037-3.961-1.037-3.961
		s-0.062,0,6.689-26.7c0.217-0.861,2.149-0.958,2.149-0.958h15.802c2.697,0,2.614,5.314,6.769,5.314h9.409l2.167-9.716h-44.425
		c-1.888,0-2.745,1.064-3.114,2.89c-0.624,3.09-5.618,23.428-7.409,31.092c-1.484,6.327,4.154,6.438,4.154,6.438h41.776
		L162.563,141.485z"/>
	<polygon fill="#FFFFFF" points="61.665,241.815 61.665,239.032 64.572,239.032 64.572,228.069 61.665,228.069 61.665,225.286 
		82.944,225.286 82.944,230.521 78.318,230.521 78.318,228.069 70.868,228.069 70.868,231.871 76.885,231.871 76.885,234.654 
		70.868,234.654 70.868,239.032 78.318,239.032 78.318,236.58 82.944,236.58 82.944,241.815 	"/>
	<path fill="#FFFFFF" d="M84.862,228.069v-2.783H96.4v2.783h-2.373v7.516c0,1.005,0.062,1.729,0.186,2.17
		c0.121,0.443,0.441,0.809,0.964,1.095c0.52,0.286,1.182,0.427,1.98,0.427c0.82,0,1.505-0.134,2.049-0.402
		c0.544-0.272,0.896-0.609,1.051-1.017c0.158-0.406,0.234-1.236,0.234-2.486v-7.302h-2.329v-2.783h9.613v2.783h-2.945v8.301
		c0,1.129-0.086,1.952-0.262,2.466c-0.172,0.51-0.576,1.02-1.202,1.525c-0.627,0.507-1.533,0.917-2.721,1.227
		c-1.192,0.317-2.556,0.472-4.099,0.472c-1.784,0-3.307-0.172-4.567-0.517c-1.261-0.348-2.194-0.806-2.811-1.378
		c-0.613-0.575-1.006-1.144-1.181-1.708c-0.176-0.562-0.262-1.525-0.262-2.887v-7.501H84.862z"/>
	<path fill="#FFFFFF" d="M134.313,239.032v2.783h-7.361l-5.477-7.243h-2.755v4.46h3.031v2.783h-12.644v-2.783h3.313v-10.963h-3.313
		v-2.783h14.586c2.749,0,4.726,0.472,5.938,1.419s1.819,2.019,1.819,3.214c0,1.877-1.392,3.248-4.175,4.112l3.927,5.001H134.313z
		 M118.72,231.954h2.153c2.659,0,3.985-0.654,3.985-1.963c0-0.645-0.299-1.127-0.909-1.447c-0.606-0.316-1.439-0.475-2.504-0.475
		h-2.725V231.954z"/>
	<path fill="#FFFFFF" d="M148.541,225.038c4.175,0,7.457,0.826,9.848,2.477c2.397,1.653,3.596,3.661,3.596,6.034
		c0,2.384-1.202,4.396-3.6,6.041c-2.4,1.65-5.68,2.47-9.844,2.47c-4.322,0-7.643-0.847-9.961-2.542
		c-2.321-1.694-3.479-3.682-3.479-5.969c0-2.362,1.192-4.374,3.571-6.027C141.056,225.868,144.345,225.038,148.541,225.038
		 M148.554,228.069c-1.856,0-3.431,0.475-4.722,1.426c-1.292,0.95-1.939,2.342-1.939,4.178c0,1.626,0.638,2.924,1.915,3.899
		c1.274,0.975,2.855,1.46,4.746,1.46c1.854,0,3.431-0.476,4.729-1.433c1.299-0.951,1.946-2.328,1.946-4.127
		c0-1.608-0.62-2.91-1.86-3.909C152.129,228.565,150.525,228.069,148.554,228.069"/>
	<path fill="#FFFFFF" d="M177.518,239.032v2.783h-12.73v-2.783h3.072v-10.963h-3.072v-2.783h12.73c2.962,0,5.245,0.476,6.864,1.422
		c1.612,0.951,2.422,2.229,2.422,3.834c0,0.92-0.283,1.75-0.852,2.501c-0.568,0.747-1.288,1.318-2.173,1.719
		c-0.889,0.399-1.898,0.675-3.038,0.819s-2.563,0.221-4.274,0.221h-2.308v3.23H177.518z M174.16,233.059h0.934
		c2.152,0,3.537-0.241,4.157-0.72c0.613-0.482,0.923-1.081,0.923-1.794c0-0.604-0.21-1.116-0.637-1.544
		c-0.431-0.423-0.924-0.685-1.475-0.785c-0.555-0.1-1.46-0.147-2.721-0.147h-1.182V233.059z"/>
	<polygon fill="#FFFFFF" points="188.647,241.815 188.647,239.032 191.55,239.032 191.55,228.069 188.647,228.069 188.647,225.286 
		209.925,225.286 209.925,230.521 205.299,230.521 205.299,228.069 197.85,228.069 197.85,231.871 203.867,231.871 203.867,234.654 
		197.85,234.654 197.85,239.032 205.299,239.032 205.299,236.58 209.925,236.58 209.925,241.815 	"/>
</g>
</svg>
