<?xml version="1.0" encoding="UTF-8"?>
<!DOCTYPE svg PUBLIC "-//W3C//DTD SVG 1.1//EN" "http://www.w3.org/Graphics/SVG/1.1/DTD/svg11.dtd">
<!-- Creator: CorelDRAW X6 -->
<svg xmlns="http://www.w3.org/2000/svg" xml:space="preserve" width="5.82677in" height="4.13386in" version="1.1" style="shape-rendering:geometricPrecision; text-rendering:geometricPrecision; image-rendering:optimizeQuality; fill-rule:evenodd; clip-rule:evenodd"
viewBox="0 0 5827 4134"
 xmlns:xlink="http://www.w3.org/1999/xlink">
 <defs>
  <style type="text/css">
   <![CDATA[
    .str0 {stroke:#332C2B;stroke-width:2.99606}
    .str1 {stroke:#E62129;stroke-width:2.99606}
    .str3 {stroke:#332C2B;stroke-width:3}
    .str2 {stroke:#FEFEFE;stroke-width:23.6102}
    .fil0 {fill:none}
    .fil1 {fill:#332C2B}
    .fil22 {fill:#FDD100}
    .fil2 {fill:#FEFEFE}
    .fil51 {fill:#D85331}
    .fil45 {fill:#396479}
    .fil46 {fill:#5B3937}
    .fil26 {fill:#A65433}
    .fil49 {fill:#332C2B;fill-rule:nonzero}
    .fil50 {fill:#D85331;fill-rule:nonzero}
    .fil41 {fill:url(#id0)}
    .fil43 {fill:url(#id1)}
    .fil44 {fill:url(#id2)}
    .fil54 {fill:url(#id3)}
    .fil42 {fill:url(#id4)}
    .fil53 {fill:url(#id5)}
    .fil52 {fill:url(#id6)}
    .fil38 {fill:url(#id7)}
    .fil29 {fill:url(#id8)}
    .fil30 {fill:url(#id9)}
    .fil31 {fill:url(#id10)}
    .fil25 {fill:url(#id11)}
    .fil37 {fill:url(#id12)}
    .fil21 {fill:url(#id13)}
    .fil32 {fill:url(#id14)}
    .fil47 {fill:url(#id15)}
    .fil24 {fill:url(#id16)}
    .fil39 {fill:url(#id17)}
    .fil40 {fill:url(#id18)}
    .fil5 {fill:url(#id19)}
    .fil4 {fill:url(#id20)}
    .fil20 {fill:url(#id21)}
    .fil11 {fill:url(#id22)}
    .fil19 {fill:url(#id23)}
    .fil12 {fill:url(#id24)}
    .fil10 {fill:url(#id25)}
    .fil18 {fill:url(#id26)}
    .fil9 {fill:url(#id27)}
    .fil17 {fill:url(#id28)}
    .fil8 {fill:url(#id29)}
    .fil48 {fill:url(#id30)}
    .fil28 {fill:url(#id31)}
    .fil3 {fill:url(#id32)}
    .fil36 {fill:url(#id33)}
    .fil23 {fill:url(#id34)}
    .fil16 {fill:url(#id35)}
    .fil6 {fill:url(#id36)}
    .fil13 {fill:url(#id37)}
    .fil7 {fill:url(#id38)}
    .fil33 {fill:url(#id39)}
    .fil27 {fill:url(#id40)}
    .fil35 {fill:url(#id41)}
    .fil15 {fill:url(#id42)}
    .fil14 {fill:url(#id43)}
    .fil34 {fill:url(#id44)}
   ]]>
  </style>
  <linearGradient id="id0" gradientUnits="userSpaceOnUse" x1="3575.42" y1="2381.58" x2="5138.84" y2="2381.58">
   <stop offset="0" style="stop-color:#6B8B99"/>
   <stop offset="0.54902" style="stop-color:#D6D9DA"/>
   <stop offset="0.74902" style="stop-color:#DFE1E2"/>
   <stop offset="1" style="stop-color:#6B8B99"/>
  </linearGradient>
  <linearGradient id="id1" gradientUnits="userSpaceOnUse" x1="764.669" y1="2392.93" x2="2260.96" y2="2392.93">
   <stop offset="0" style="stop-color:#6B8B99"/>
   <stop offset="0.25098" style="stop-color:#DFE1E2"/>
   <stop offset="0.45098" style="stop-color:#D6D9DA"/>
   <stop offset="1" style="stop-color:#6B8B99"/>
  </linearGradient>
  <linearGradient id="id2" gradientUnits="userSpaceOnUse" x1="1457.44" y1="2973.28" x2="4365.19" y2="2973.28">
   <stop offset="0" style="stop-color:#6B8B99"/>
   <stop offset="0.34902" style="stop-color:#D6D9DA"/>
   <stop offset="0.501961" style="stop-color:#DFE1E2"/>
   <stop offset="0.65098" style="stop-color:#D6D9DA"/>
   <stop offset="1" style="stop-color:#6B8B99"/>
  </linearGradient>
  <linearGradient id="id3" gradientUnits="userSpaceOnUse" xlink:href="#id0" x1="2253.41" y1="2620.39" x2="1424.76" y2="2620.39">
  </linearGradient>
  <linearGradient id="id4" gradientUnits="userSpaceOnUse" xlink:href="#id1" x1="3588.74" y1="2620.39" x2="4400.48" y2="2620.39">
  </linearGradient>
  <linearGradient id="id5" gradientUnits="userSpaceOnUse" x1="3249.98" y1="1836.27" x2="3164.21" y2="1221.61">
   <stop offset="0" style="stop-color:#A65433"/>
   <stop offset="0.0509804" style="stop-color:#A95B34"/>
   <stop offset="0.34902" style="stop-color:#DFC277"/>
   <stop offset="0.45098" style="stop-color:#EDDED0"/>
   <stop offset="0.709804" style="stop-color:#FCFAF8"/>
   <stop offset="1" style="stop-color:#FEFEFE"/>
  </linearGradient>
  <linearGradient id="id6" gradientUnits="userSpaceOnUse" x1="2331.69" y1="1549.88" x2="2543.61" y2="1241.63">
   <stop offset="0" style="stop-color:#FBC400"/>
   <stop offset="0.741176" style="stop-color:#FEFCF4"/>
   <stop offset="1" style="stop-color:#FEFEFE"/>
  </linearGradient>
  <linearGradient id="id7" gradientUnits="userSpaceOnUse" x1="1670.16" y1="1767.02" x2="1640.39" y2="2107.29">
   <stop offset="0" style="stop-color:#A65433"/>
   <stop offset="0.141176" style="stop-color:#A95B34"/>
   <stop offset="0.509804" style="stop-color:#BB7F44"/>
   <stop offset="0.678431" style="stop-color:#DFC277"/>
   <stop offset="0.8" style="stop-color:#EDDED0"/>
   <stop offset="1" style="stop-color:#FEFEFE"/>
  </linearGradient>
  <linearGradient id="id8" gradientUnits="userSpaceOnUse" xlink:href="#id7" x1="1921.19" y1="1565.82" x2="1842.56" y2="1734.43">
  </linearGradient>
  <linearGradient id="id9" gradientUnits="userSpaceOnUse" xlink:href="#id7" x1="2088.86" y1="1562.95" x2="2018.22" y2="1757.04">
  </linearGradient>
  <linearGradient id="id10" gradientUnits="userSpaceOnUse" xlink:href="#id7" x1="2224.89" y1="1584.38" x2="2180.14" y2="1751.39">
  </linearGradient>
  <linearGradient id="id11" gradientUnits="userSpaceOnUse" x1="2145.21" y1="1409.03" x2="2124.01" y2="1529.22">
   <stop offset="0" style="stop-color:#A65433"/>
   <stop offset="0.129412" style="stop-color:#A95B34"/>
   <stop offset="0.368627" style="stop-color:#DFC277"/>
   <stop offset="0.458824" style="stop-color:#EDDED0"/>
   <stop offset="1" style="stop-color:#FEFEFE"/>
  </linearGradient>
  <linearGradient id="id12" gradientUnits="userSpaceOnUse" xlink:href="#id7" x1="1483.06" y1="1765.35" x2="1424.99" y2="2094.67">
  </linearGradient>
  <linearGradient id="id13" gradientUnits="userSpaceOnUse" xlink:href="#id7" x1="2695.78" y1="1579.46" x2="2651.27" y2="1831.85">
  </linearGradient>
  <linearGradient id="id14" gradientUnits="userSpaceOnUse" xlink:href="#id7" x1="2364.77" y1="1614.15" x2="2336.03" y2="1777.13">
  </linearGradient>
  <linearGradient id="id15" gradientUnits="userSpaceOnUse" xlink:href="#id11" x1="2134.16" y1="1186.86" x2="2103.44" y2="1371.19">
  </linearGradient>
  <linearGradient id="id16" gradientUnits="userSpaceOnUse" xlink:href="#id11" x1="1921.55" y1="1384.06" x2="1897.64" y2="1554.2">
  </linearGradient>
  <linearGradient id="id17" gradientUnits="userSpaceOnUse" xlink:href="#id7" x1="1852.95" y1="1825.33" x2="1852.95" y2="2103.75">
  </linearGradient>
  <linearGradient id="id18" gradientUnits="userSpaceOnUse" xlink:href="#id7" x1="2044.68" y1="1810.2" x2="2075.64" y2="2164.13">
  </linearGradient>
  <linearGradient id="id19" gradientUnits="userSpaceOnUse" xlink:href="#id11" x1="3858.67" y1="1307.55" x2="3885.76" y2="1551.36">
  </linearGradient>
  <linearGradient id="id20" gradientUnits="userSpaceOnUse" xlink:href="#id11" x1="3646.65" y1="1175.65" x2="3665.48" y2="1345.14">
  </linearGradient>
  <linearGradient id="id21" gradientUnits="userSpaceOnUse" xlink:href="#id7" x1="3675.45" y1="1796.3" x2="3823.42" y2="2207.34">
  </linearGradient>
  <linearGradient id="id22" gradientUnits="userSpaceOnUse" xlink:href="#id7" x1="3589.55" y1="1541.92" x2="3672.62" y2="1772.67">
  </linearGradient>
  <linearGradient id="id23" gradientUnits="userSpaceOnUse" xlink:href="#id7" x1="3913.25" y1="1769.65" x2="4058.69" y2="2173.67">
  </linearGradient>
  <linearGradient id="id24" gradientUnits="userSpaceOnUse" xlink:href="#id7" x1="3442.86" y1="1567.45" x2="3518.51" y2="1777.58">
  </linearGradient>
  <linearGradient id="id25" gradientUnits="userSpaceOnUse" xlink:href="#id7" x1="3735.08" y1="1513.84" x2="3833.37" y2="1724.62">
  </linearGradient>
  <linearGradient id="id26" gradientUnits="userSpaceOnUse" xlink:href="#id7" x1="4094.28" y1="1740.33" x2="4281.91" y2="2142.68">
  </linearGradient>
  <linearGradient id="id27" gradientUnits="userSpaceOnUse" xlink:href="#id7" x1="3888.74" y1="1518.4" x2="3994.11" y2="1700.91">
  </linearGradient>
  <linearGradient id="id28" gradientUnits="userSpaceOnUse" xlink:href="#id7" x1="4258.82" y1="1715.37" x2="4490.65" y2="2116.89">
  </linearGradient>
  <linearGradient id="id29" gradientUnits="userSpaceOnUse" xlink:href="#id7" x1="4089.6" y1="1477.98" x2="4236.94" y2="1688.4">
  </linearGradient>
  <linearGradient id="id30" gradientUnits="userSpaceOnUse" x1="1931.96" y1="1345.65" x2="2076.53" y2="803.504">
   <stop offset="0" style="stop-color:#A65433"/>
   <stop offset="0.0509804" style="stop-color:#A95B34"/>
   <stop offset="0.239216" style="stop-color:#DFC277"/>
   <stop offset="0.301961" style="stop-color:#EDDED0"/>
   <stop offset="0.431373" style="stop-color:#FCFAF8"/>
   <stop offset="1" style="stop-color:#FEFEFE"/>
  </linearGradient>
  <linearGradient id="id31" gradientUnits="userSpaceOnUse" x1="1509.56" y1="1513.31" x2="1472.79" y2="1721.83">
   <stop offset="0" style="stop-color:#A65433"/>
   <stop offset="0.141176" style="stop-color:#A95B34"/>
   <stop offset="0.411765" style="stop-color:#BB7F44"/>
   <stop offset="0.568627" style="stop-color:#DFC277"/>
   <stop offset="0.658824" style="stop-color:#EDDED0"/>
   <stop offset="1" style="stop-color:#FEFEFE"/>
  </linearGradient>
  <linearGradient id="id32" gradientUnits="userSpaceOnUse" xlink:href="#id30" x1="3793.98" y1="1375.94" x2="3942.57" y2="818.709">
  </linearGradient>
  <linearGradient id="id33" gradientUnits="userSpaceOnUse" xlink:href="#id7" x1="1225.08" y1="1724.06" x2="1137.57" y2="2050.65">
  </linearGradient>
  <linearGradient id="id34" gradientUnits="userSpaceOnUse" xlink:href="#id11" x1="1696.18" y1="1361.78" x2="1683.95" y2="1484.08">
  </linearGradient>
  <linearGradient id="id35" gradientUnits="userSpaceOnUse" xlink:href="#id7" x1="4521.06" y1="1683.82" x2="4803.04" y2="2086.54">
  </linearGradient>
  <linearGradient id="id36" gradientUnits="userSpaceOnUse" xlink:href="#id7" x1="4486.54" y1="1378.67" x2="4729.87" y2="1622.01">
  </linearGradient>
  <linearGradient id="id37" gradientUnits="userSpaceOnUse" xlink:href="#id7" x1="4911.44" y1="1418.38" x2="5221.03" y2="1678.14">
  </linearGradient>
  <linearGradient id="id38" gradientUnits="userSpaceOnUse" xlink:href="#id7" x1="4305.97" y1="1488.28" x2="4477.47" y2="1692.67">
  </linearGradient>
  <linearGradient id="id39" gradientUnits="userSpaceOnUse" xlink:href="#id7" x1="871.429" y1="1413.58" x2="726.701" y2="1664.25">
  </linearGradient>
  <linearGradient id="id40" gradientUnits="userSpaceOnUse" xlink:href="#id7" x1="1322.75" y1="1389.77" x2="1235.37" y2="1587.56">
  </linearGradient>
  <linearGradient id="id41" gradientUnits="userSpaceOnUse" xlink:href="#id7" x1="1036.21" y1="1687.52" x2="935.839" y2="1963.31">
  </linearGradient>
  <linearGradient id="id42" gradientUnits="userSpaceOnUse" xlink:href="#id7" x1="4745.94" y1="1698.96" x2="5018.72" y2="2024.06">
  </linearGradient>
  <linearGradient id="id43" gradientUnits="userSpaceOnUse" xlink:href="#id7" x1="4896.81" y1="1603.35" x2="5212.81" y2="1919.35">
  </linearGradient>
  <linearGradient id="id44" gradientUnits="userSpaceOnUse" xlink:href="#id7" x1="838.524" y1="1560.56" x2="716.736" y2="1821.73">
  </linearGradient>
 </defs>
 <g id="Layer_x0020_1">
  <metadata id="CorelCorpID_0Corel-Layer"/>
  <g id="_679193688">
   <rect class="fil0" width="5827" height="4134"/>
   <g>
    <path class="fil1 str0" d="M2584 976c55,-79 41,-177 -38,-197 -56,-28 -159,-15 -253,43 -15,-4 -211,173 -365,179l-34 20 25 38c-90,62 -363,196 -611,221 21,32 65,65 98,81 -182,46 -486,61 -1008,1 3,60 61,110 95,159 -75,-3 -148,-18 -218,-31 39,109 152,212 311,281l-108 42c74,66 164,111 266,140l-56 33c47,32 92,54 135,69l-194 57 241 156 -177 376c220,-78 470,-124 705,-114l129 443c28,107 119,182 273,226 489,220 1631,227 2170,24 195,-47 304,-133 334,-255l128 -440c192,-17 445,29 700,94l-163 -346c107,-40 213,-83 316,-137 -50,-15 -114,-37 -158,-65l83 -49c-42,-7 -80,-30 -124,-46 159,-22 273,-76 338,-168 -41,5 -83,3 -124,-5 124,-66 217,-152 252,-272 -60,7 -95,16 -156,12 37,-60 70,-121 103,-184 -300,71 -774,91 -1010,7 13,-26 37,-54 64,-71 -138,-31 -434,-128 -579,-210 18,-22 50,-41 90,-56 -120,-23 -359,-146 -507,-237 -86,-39 -171,-42 -254,0 -70,45 -59,111 -13,188 -6,-4 -11,-8 -17,-12 -55,-38 -111,-61 -171,-60 3,-35 17,-67 34,-97 -78,32 -162,59 -256,79l5 -68c-85,66 -201,116 -300,153z"/>
    <path class="fil2" d="M2365 1251c-11,-44 7,-84 52,-121 80,-73 236,-126 376,-184 -4,13 -7,36 -11,49 71,-42 160,-76 245,-93 -14,17 -31,36 -31,60 88,-12 162,2 222,44 -35,1 -62,8 -71,27 60,12 103,34 134,63 -49,-7 -93,-8 -121,3 66,30 119,77 154,143 -10,-41 -20,-82 -30,-123 58,12 124,149 121,277 -15,-13 -29,-26 -44,-38 46,109 45,235 22,370 -5,-43 -12,-86 -27,-129 -2,73 -16,142 -33,211 2,-40 3,-80 -5,-121 -10,31 -22,59 -36,82 4,-28 6,-57 -5,-85 -28,87 -65,128 -104,162 -10,-47 59,-118 30,-189 -5,33 -33,66 -71,99 12,-29 24,-59 16,-69 -20,0 -60,32 -93,55 10,-26 17,-55 38,-69 -12,8 -47,8 -85,8 77,-27 138,-68 143,-159 14,-4 21,12 27,30 26,-62 18,-105 -5,-140 3,26 2,56 -3,88 -10,-30 -22,-56 -44,-63 8,118 -30,162 -65,191 9,-57 24,-110 4,-142 -17,80 -51,135 -88,175 9,-51 16,-94 0,-128 0,42 -17,73 -40,89 1,-36 5,-73 -18,-103 -9,34 -21,60 -38,77 -5,-23 -11,-46 -27,-60 -8,76 -37,127 -82,156 17,-48 31,-97 11,-148 -13,50 -38,86 -71,113 11,-38 21,-77 8,-123 -6,-8 -28,24 -58,74 -11,-19 -12,-43 -12,-73 -14,4 -35,27 -49,63 -9,-43 -14,-81 0,-104 13,-32 73,-58 74,-58 2,-9 -27,-5 -36,-27 14,-34 55,-50 91,-69 -42,-10 -134,-5 -137,19 -8,19 72,44 -20,121 -55,17 -115,24 -181,56 -3,-16 5,-32 4,-43 5,5 2,14 7,20 51,-24 102,-44 144,-65 35,-15 45,-28 36,-34 -39,-26 -93,-25 -154,-11 -42,19 -51,32 -66,38 -16,0 -33,3 -49,3 -7,37 -15,63 -25,82 -42,-40 -78,-81 -77,-132 12,-50 63,-98 154,-145zm41 11c7,-21 25,-37 40,-47 -8,13 -15,33 -3,38 88,13 113,-77 231,-67 -37,20 -79,35 -107,69 16,10 34,9 53,6 -31,35 -86,46 -159,40 -18,-20 -38,-29 -55,-38zm549 150c16,-2 31,-4 47,-6 15,28 21,55 21,83 -14,-37 -39,-60 -68,-77zm66 -74c36,20 72,43 98,83 -8,-23 -10,-40 -8,-53 -30,-13 -60,-22 -91,-30zm266 92c15,7 30,21 45,42 -1,39 -7,69 -15,96 -3,-57 -14,-103 -30,-138zm-126 -96c17,-4 36,-6 62,0 18,38 14,71 11,104 -14,-45 -35,-83 -74,-104zm8 -123c27,-6 66,5 108,23 18,38 27,71 34,102 -31,-55 -99,-108 -142,-125zm-219 -157c14,-12 28,-24 42,-36 23,1 47,3 70,4 -51,5 -85,17 -111,32z"/>
    <path class="fil0 str1" d="M2345 1317c17,-6 38,-5 58,-3 -10,-5 -23,-13 -33,-18 -13,9 -18,15 -25,21z"/>
    <path class="fil2" d="M2469 1272c-5,17 1,24 7,30 16,0 33,0 49,0 9,-6 10,-18 10,-35 -2,-13 -13,-10 -22,2 -2,13 -5,26 -12,28 -7,0 -11,-4 -11,-24 -7,-6 -13,-10 -22,-1z"/>
    <path class="fil3" d="M3338 1109c27,20 46,52 63,87 8,-22 12,-51 7,-97 56,79 116,99 177,93 -22,-29 -47,-57 -55,-92 48,43 114,62 185,68 -51,-48 -95,-95 -123,-143 57,-10 242,219 350,223 -16,-23 -30,-45 -32,-68 68,57 127,177 355,205 -26,-62 -96,-85 -110,-117 40,15 76,38 107,77 51,4 92,9 115,4 34,-1 48,-13 58,-24 -205,-56 -407,-132 -603,-263 39,-2 77,-3 97,-20 -147,-53 -284,-127 -403,-204 -79,-21 -152,-30 -203,10 -20,61 9,103 60,137 -9,0 -18,0 -27,0 1,50 -4,92 -17,123zm129 -144c14,19 27,38 41,65 24,25 57,47 93,68 -23,-31 -45,-62 -68,-93 -22,-22 -44,-34 -66,-40z"/>
    <path class="fil4" d="M3750 1164c34,44 90,90 141,129 -41,4 -84,-2 -131,-31 2,23 4,46 6,68 -72,-17 -126,-50 -160,-100 -2,41 16,82 41,122 -51,-14 -96,-34 -131,-64 3,23 7,46 10,68 -32,-10 -58,-25 -79,-46 -19,-24 -28,-48 -25,-73 3,-24 6,-47 8,-71 55,37 110,51 166,50 0,-10 0,-19 0,-29 45,19 90,19 135,17 8,-12 8,-30 17,-42z"/>
    <path class="fil2" d="M3457 2754c-35,0 -64,28 -64,64 0,35 28,64 64,64 35,0 64,-28 64,-64 0,-35 -28,-64 -64,-64l0 0 0 0m0 118c-30,0 -54,-24 -54,-54 0,-30 24,-54 54,-54 30,0 54,24 54,54 0,30 -24,54 -54,54l0 0z"/>
    <path class="fil2" d="M3445 2813l0 -17 16 0c8,0 9,5 9,8 0,6 -3,9 -10,9l-15 0 0 0 0 0m-13 35l13 0 0 -24 13 0c10,0 10,3 10,12 0,6 1,10 1,13l14 0 0 -2c-3,-1 -3,-3 -3,-12 0,-12 -3,-14 -8,-16 6,-2 10,-8 10,-15 0,-5 -3,-18 -20,-18l-32 0 0 62 0 0z"/>
    <path class="fil5" d="M4220 1397c14,30 55,52 108,69 -127,25 -248,5 -362,-81 7,41 35,82 62,123 -99,-21 -162,-62 -202,-116 7,43 33,91 66,140 -77,-24 -160,-73 -224,-143 -12,34 22,89 49,143 -62,-16 -121,-45 -170,-101 -7,41 -5,82 7,123 -83,-47 -140,-105 -138,-185 181,4 353,-18 515,-66 99,51 195,82 288,94z"/>
    <path class="fil6" d="M4395 1390c135,76 295,123 483,140 -182,81 -359,60 -534,-30 5,-9 36,-4 38,-12 7,-25 -25,-59 -43,-76 19,-7 38,-15 57,-22z"/>
    <path class="fil7" d="M4163 1502c49,1 99,3 148,4 59,35 125,63 198,81 37,31 75,62 112,93 -174,-14 -330,-68 -458,-177z"/>
    <path class="fil8" d="M3994 1524c24,6 49,11 77,11 -5,-19 -10,-38 -15,-57 25,9 49,21 78,33 34,33 73,61 121,83 22,33 49,64 78,94 -128,-16 -247,-56 -339,-164z"/>
    <path class="fil9" d="M3818 1531c41,14 81,28 132,24 -8,-16 -16,-32 -24,-48 31,31 62,62 100,93 6,37 21,75 38,112 -111,-42 -192,-104 -247,-181z"/>
    <path class="fil10" d="M3666 1546c25,8 50,11 75,9 0,-21 0,-43 0,-64 40,19 80,104 133,141 4,40 14,79 28,116 -94,-43 -180,-99 -236,-201z"/>
    <path class="fil11" d="M3527 1573c19,5 37,11 56,16 0,-27 0,-54 0,-81 51,70 87,76 108,121 10,61 28,119 44,177 -92,-27 -166,-94 -208,-233z"/>
    <path class="fil12" d="M3457 1523c8,19 21,35 39,47 5,26 15,50 33,73 -6,62 -3,122 7,180 -44,-22 -79,-63 -104,-125 -5,-39 -4,-78 4,-117 7,-19 15,-38 22,-57z"/>
    <path class="fil13" d="M4744 1476c222,5 439,-1 644,-35 -97,198 -335,215 -609,179 73,-36 153,-68 227,-104 -112,-6 -206,-17 -262,-40z"/>
    <path class="fil14" d="M4655 1653c71,1 141,3 212,4 173,13 310,-7 411,-60 59,1 118,1 177,2 -56,119 -338,326 -800,54z"/>
    <path class="fil15" d="M4484 1718c153,193 538,287 796,144 -74,-25 -139,-37 -219,-52 -88,-9 -194,-18 -332,-75 -82,-6 -163,-11 -245,-17z"/>
    <path class="fil16" d="M4264 1728c47,4 94,8 141,12 -8,-13 -15,-26 -23,-40 6,-2 12,-4 19,-6 118,129 277,224 511,258 46,38 96,61 148,77 -280,45 -549,-20 -796,-302z"/>
    <path class="fil17" d="M4098 1694c91,243 366,428 554,445 -23,-38 -44,-77 -60,-115 -149,-77 -275,-174 -364,-303 -43,-9 -87,-18 -130,-27z"/>
    <path class="fil18" d="M3927 1713c122,272 308,396 521,457 -9,-26 -17,-52 -26,-78 -141,-93 -250,-203 -327,-333 -56,-16 -112,-31 -169,-47z"/>
    <path class="fil19" d="M3755 1729c65,228 236,377 461,486 -6,-33 -10,-66 -2,-103 -121,-87 -227,-185 -292,-314 0,0 -165,-67 -167,-69z"/>
    <path class="fil20" d="M3742 1842c67,102 137,192 213,257 0,53 0,107 0,160 -68,-14 -134,-46 -193,-115 -26,9 -52,17 -77,26 -59,-68 -105,-136 -141,-203 26,8 52,16 77,24 -39,-71 -60,-153 -62,-246 40,44 101,77 182,98z"/>
    <path class="fil21" d="M2493 1586c-45,56 -59,138 -68,223 24,-21 48,-42 72,-63 -9,20 -2,41 7,61 18,-41 46,-67 77,-90 6,17 6,35 0,52 19,-4 38,-20 56,-47 -2,42 -15,84 -41,126 104,-44 207,-89 311,-133 14,-44 13,-78 9,-111 -11,13 -21,26 -32,38 -7,-5 -14,-9 -20,-14 -54,86 -108,134 -162,142 26,-32 39,-66 41,-104 -20,14 -39,29 -59,43 -10,-38 -3,-77 11,-115 -17,21 -35,42 -52,63 -3,-20 -6,-41 -9,-61 -17,15 -33,30 -50,45 -22,-20 -29,-47 -20,-79 -21,17 -45,24 -72,23z"/>
    <path class="fil22" d="M2532 1418c-43,10 -82,26 -116,50 -1,-18 11,-37 45,-57 33,-2 57,0 71,7z"/>
    <path class="fil23" d="M1613 1377c-12,26 -72,69 -129,110 163,12 300,-35 412,-140 -62,15 -117,18 -178,13 -37,-3 -68,14 -104,17z"/>
    <path class="fil24" d="M1756 1468c-16,28 -44,57 -74,85 96,-12 192,-41 288,-104 -23,47 -65,81 -110,113 134,-5 231,-59 277,-181 -46,16 -91,31 -137,47 3,-16 5,-31 8,-47 -36,-1 -71,-2 -107,-3 -35,44 -89,69 -145,91z"/>
    <path class="fil25" d="M2154 1396c-17,54 -55,101 -93,148 53,-8 103,-27 148,-71 -7,-27 -15,-53 -22,-80 -11,1 -22,2 -33,3z"/>
    <path class="fil26" d="M2192 1556c17,-8 35,-16 52,-25 -8,-7 -16,-15 -25,-22 -2,16 -11,31 -27,47z"/>
    <path class="fil27" d="M1539 1400c-146,48 -325,79 -519,101 68,78 218,74 446,14 -20,-3 -49,-5 -69,-8 11,-10 29,-16 39,-26 34,-27 68,-54 103,-81z"/>
    <path class="fil28" d="M1160 1628c101,46 210,53 328,20 41,-19 83,-38 124,-57 -38,42 -76,84 -114,126 145,-8 254,-63 326,-166 -62,18 -126,30 -193,28 12,-22 20,-42 22,-59 -43,2 -86,2 -128,-2 -121,37 -242,74 -363,111z"/>
    <path class="fil29" d="M1835 1591c-14,20 -36,42 -55,57 -11,31 -15,58 -26,89 104,-13 189,-71 257,-174 -47,16 -102,27 -176,28z"/>
    <path class="fil30" d="M2020 1587c-17,25 -34,50 -51,75 -7,39 -20,76 -37,111 91,-19 169,-101 245,-225 0,0 -41,12 -82,22 -37,9 -75,16 -74,17z"/>
    <path class="fil31" d="M2184 1583c-14,38 -38,72 -63,105 0,27 -9,54 -20,81 70,-13 142,-53 201,-124 -7,-22 -7,-38 2,-49 -20,-9 -39,-18 -59,-28 -20,13 -41,18 -61,16z"/>
    <path class="fil32" d="M2311 1654c-11,49 -28,98 -45,147 78,-26 138,-88 168,-211 -41,21 -82,43 -123,64z"/>
    <path class="fil33" d="M1086 1456c-198,8 -395,2 -593,-29 113,181 328,223 612,169 -70,-36 -135,-72 -186,-114 56,-9 111,-17 167,-26z"/>
    <path class="fil34" d="M400 1573c67,5 133,10 200,14 100,45 216,65 348,60 69,9 138,17 207,26 -228,137 -590,107 -755,-100z"/>
    <path class="fil35" d="M600 1832c42,-13 84,-25 126,-38 168,0 325,-34 474,-98 48,16 105,22 171,19 -232,212 -604,239 -772,117z"/>
    <path class="fil36" d="M819 1999c244,65 486,28 724,-231 -39,-6 -78,-13 -117,-19 9,-13 17,-25 26,-38 -190,113 -405,207 -634,288z"/>
    <path class="fil37" d="M1574 1749c27,-5 54,-10 81,-14 18,1 37,2 55,2 4,14 8,29 12,43 -186,225 -346,340 -536,345 13,-39 29,-74 55,-100 152,-91 283,-173 333,-276z"/>
    <path class="fil38" d="M1748 1775c-83,126 -200,230 -333,324 -4,16 -8,32 -12,48 72,-12 144,-32 217,-69 128,-98 236,-208 288,-350 -53,16 -106,32 -160,48z"/>
    <path class="fil39" d="M1655 2080c-6,28 -11,56 -17,83 140,-34 283,-160 429,-398 -53,14 -106,29 -160,43 -61,118 -153,198 -252,272z"/>
    <path class="fil40" d="M1848 2223c65,-2 135,-31 219,-121 30,-1 60,-2 91,-2 84,-82 118,-164 119,-245 -47,69 -102,121 -162,164 55,-77 106,-158 129,-267 -55,22 -110,44 -164,67 -79,87 -157,175 -236,262 2,48 3,95 5,143z"/>
    <path class="fil41" d="M4421 2476c238,-15 434,13 606,65 -43,-98 -85,-195 -128,-293 80,-35 160,-70 240,-105 -79,-34 -158,-61 -238,-75 -81,-14 -162,-22 -243,-23 23,39 36,82 45,128 -78,-7 -152,-23 -223,-50 8,27 15,53 23,80 -104,-9 -184,-34 -248,-70 -4,40 -5,83 -3,130 -81,-32 -155,-70 -223,-115 -13,4 -25,8 -38,13 0,47 0,93 0,140 -53,-16 -107,-32 -160,-48 -30,20 -60,40 -90,60 -45,77 -101,150 -146,227 -8,14 -10,29 -14,48 -7,74 38,112 118,125 97,4 199,-81 303,-178 91,-89 189,-159 300,-188 33,-13 67,-5 100,23 27,35 24,70 18,105z"/>
    <path class="fil42" d="M3574 2672c35,42 80,65 135,69 105,-3 233,-98 350,-207 97,-107 201,-146 279,-156 69,19 80,78 10,154 -219,185 -493,295 -775,331 1,-64 2,-127 2,-191z"/>
    <path class="fil43" d="M765 2130c59,40 119,79 178,119 -45,100 -90,200 -134,300 188,-66 390,-89 595,-72 -20,-54 -17,-83 8,-110 139,-80 281,63 419,172 133,132 258,207 365,156 43,-26 65,-69 66,-128 -67,-90 -133,-179 -200,-269 -29,-19 -58,-37 -87,-56 -48,14 -100,23 -156,28 -2,-47 -4,-94 -6,-141 -61,41 -131,69 -209,84 2,-31 4,-62 6,-94 -77,35 -159,60 -253,62 4,-22 8,-44 12,-66 -71,30 -148,41 -228,37 6,-49 27,-83 50,-116 -162,18 -305,48 -425,91z"/>
    <path class="fil44" d="M1457 2546c46,139 77,281 123,420 21,62 46,98 102,126 592,297 1857,309 2469,5 34,-26 65,-56 81,-107 44,-142 88,-284 132,-426 -637,563 -2521,482 -2908,-18z"/>
    <path class="fil45" d="M4040 2207c-68,128 -103,266 -125,409 -11,8 -22,15 -33,23 6,-117 33,-233 75,-350 12,4 23,8 35,12 0,-27 0,-54 0,-81 16,-4 32,-9 48,-13z"/>
    <path class="fil45" d="M3886 2271c-61,42 -93,56 -154,98 -24,86 -52,218 -56,340 42,12 87,0 135,-23 9,-155 47,-288 102,-407 -9,-3 -18,-5 -27,-8z"/>
    <path class="fil1" d="M1753 2853l2 11c1,4 1,7 2,9l51 192c4,14 6,23 8,27l3 8 -47 -21 0 -5c0,-3 -1,-7 -2,-12l-4 -16 -7 -27 0 0 -46 -21 0 0 -7 26 -2 7c-1,4 -1,7 -2,10l0 7 -46 -21c5,-7 8,-14 10,-21l51 -152c1,-2 2,-5 2,-8l1 -7 33 15zm-33 110l0 0 30 13 0 0 -15 -68 0 0 -15 55zm147 -62l4 11c4,11 9,24 15,38l40 95 0 0 0 -64c0,-11 0,-22 -1,-32 0,-6 -1,-13 -2,-19l-2 -12 49 16 -1 7c-1,6 -2,13 -3,18 0,5 -1,12 -1,21l0 9 0 105c0,13 1,29 4,46l2 11 -46 -15c-2,-8 -3,-13 -4,-16 -1,-3 -4,-11 -9,-23l-39 -94 0 0 0 61c0,9 0,19 1,29 1,8 1,15 3,21l1 7 -49 -16 1 -6c2,-8 3,-16 3,-25l1 -12 0 -135 -22 -44 56 18zm288 81l2 10c1,4 1,6 2,8l53 179c4,13 7,22 8,25l3 7 -49 -9 0 -5c0,-3 -1,-7 -2,-12l-4 -15 -7 -26 0 0 -48 -9 0 0 -8 28 -2 7c-1,4 -1,7 -2,11l0 7 -48 -9c5,-8 8,-16 11,-24l53 -164c1,-3 2,-6 2,-9l1 -7 35 7zm-35 118l0 0 31 6 0 0 -16 -64 0 0 -15 59zm154 -94l0 6c0,5 2,9 4,13l40 74 42 -65c3,-5 4,-10 5,-15l47 7 -2 6c-3,9 -6,17 -7,24 -1,7 -2,15 -3,23l0 9 0 88c0,11 0,20 1,28 0,11 2,21 4,32l1 6 -52 -8 2 -8c2,-12 4,-31 4,-57l0 -63 0 0 -41 67 -41 -80 0 0 0 63c0,23 1,41 3,55l2 11 -52 -8 3 -10c1,-8 2,-18 3,-33l0 -22 0 -116 -21 -38 61 9zm158 234c2,-6 3,-14 3,-24l0 -7 0 -135 0 -9c0,-10 -1,-18 -3,-26l-2 -10 100 10 -15 46 -10 -5c-4,-2 -8,-3 -12,-4l-16 -4 0 49 50 5 -18 45c-10,-6 -18,-9 -24,-10l-8 -1 0 53 16 0c5,0 9,-1 14,-1 9,-1 16,-3 23,-6l10 -5 -17 55 -92 -9 2 -7zm174 -194c43,2 64,24 65,68 0,24 -8,41 -24,51l-7 4 0 0 8 18c7,16 15,30 23,44 5,10 11,19 17,27l7 10 -46 -2 -4 -5c-10,-12 -20,-30 -30,-52 -3,-6 -5,-12 -8,-18l-6 -15 0 0 0 37c0,8 0,15 1,22 1,6 1,13 3,20l2 10 -53 -3 2 -8c2,-7 3,-15 3,-23l0 -5 0 -138 0 -7c0,-8 -1,-17 -3,-26l-2 -10 51 2zm-4 38l0 59 6 0c6,-1 11,-3 15,-9 4,-5 7,-12 7,-20 0,-8 -2,-15 -6,-21 -4,-5 -9,-8 -15,-9l-6 -1zm102 175c2,-9 3,-18 3,-26l0 -7 0 -124 0 -13c0,-7 -1,-13 -2,-18 -1,-4 -2,-11 -4,-19l53 1 -3 10c-1,7 -2,15 -3,25l0 12 0 124 0 9c0,12 1,22 3,29l2 9 -53 -1 2 -10zm202 -140l-5 -5c-6,-6 -12,-10 -19,-13 -6,-3 -12,-4 -18,-4 -17,0 -30,10 -36,30 -4,11 -6,24 -6,37 0,13 2,25 5,36 4,13 10,22 17,28 5,4 12,6 19,6 15,0 31,-10 46,-29l-2 57 -13 7c-12,6 -25,8 -39,8 -19,0 -34,-6 -47,-18 -10,-9 -17,-20 -23,-34 -7,-17 -11,-36 -11,-57 0,-34 8,-61 26,-83 16,-21 37,-31 62,-31 12,0 25,2 40,7l2 1 0 57zm108 -62l2 10c1,4 1,6 2,8l53 169c4,13 7,21 8,24l3 6 -50 0 0 -5c0,-3 -1,-7 -2,-11l-4 -14 -7 -24 0 0 -49 0 0 0 -8 29 -2 7c-1,4 -1,8 -2,11l0 7 -49 0c5,-9 8,-18 11,-26l54 -175c1,-3 2,-6 2,-9l1 -7 35 0zm-35 124l0 0 31 0 0 0 -16 -61 0 0 -15 61zm154 -130l4 9c4,10 10,21 16,33l41 81 0 0 0 -64c0,-11 0,-22 -1,-32 0,-6 -1,-12 -2,-19l-2 -11 50 -2 -2 8c-1,7 -2,13 -3,19 0,5 -1,12 -1,21l0 9 0 105c0,13 1,28 4,45l2 10 -47 2c-2,-7 -3,-12 -4,-14 -1,-3 -4,-10 -9,-20l-40 -79 0 0 0 61c0,9 0,19 1,28 1,8 1,14 3,20l1 6 -50 2 1 -6c2,-9 3,-17 3,-27l1 -12 0 -135 -22 -36 57 -3zm262 -25l-3 10c-1,6 -2,11 -2,17l0 11 0 141 14 -4c11,-4 20,-8 29,-12l14 -9 -16 59 -88 11 2 -8c2,-8 3,-17 3,-25l0 -6 0 -136 0 -8c0,-8 -1,-16 -3,-23l-3 -11 52 -6zm66 198c2,-7 3,-15 3,-24l0 -7 0 -135 0 -9c0,-9 -1,-18 -3,-26l-2 -9 100 -14 -15 49 -10 -3c-4,-1 -8,-1 -12,-1l-16 0 0 49 49 -7 -18 50c-10,-3 -18,-5 -24,-5l-8 0 0 53 15 -4c5,-1 9,-3 14,-5 9,-3 16,-7 23,-12l10 -7 -17 59 -92 13 2 -8zm251 -193l-3 -3c-6,-5 -13,-8 -20,-10 -7,-2 -14,-2 -21,0 -13,3 -24,12 -32,28 -7,14 -11,31 -11,50 0,18 3,33 10,45 7,13 17,17 31,15 3,-1 5,-1 7,-3l5 -3 0 -25 0 -16c0,-7 -1,-15 -3,-22l-2 -10 52 -11 -3 12c-2,10 -3,21 -3,32l0 39c0,7 1,13 2,17l3 6 -12 7c-14,8 -29,14 -43,17l-9 2c-25,4 -44,-2 -57,-18 -15,-17 -23,-42 -23,-74 0,-16 2,-32 7,-47 7,-24 18,-43 34,-60 13,-14 30,-23 50,-27 6,-1 11,-2 16,-2 5,0 10,0 15,1l10 1 0 57zm33 137c2,-7 2,-15 3,-25l0 -7 0 -135 0 -9c0,-9 -1,-18 -3,-25l-2 -9 99 -26 -15 51 -10 -1c-4,0 -8,0 -12,0l-16 2 0 49 49 -13 -18 52c-10,-2 -18,-3 -23,-2l-8 1 0 53 15 -6c5,-2 9,-4 13,-6 9,-4 16,-9 23,-14l9 -8 -17 61 -90 24 2 -8zm163 -257l4 8c4,9 9,18 15,29l40 70 0 0 0 -64c0,-11 0,-22 -1,-31 0,-6 -1,-12 -2,-18l-2 -11 49 -16 -1 8c-1,7 -2,14 -3,20 0,5 -1,12 -1,21l0 9 0 105c0,13 1,28 4,44l2 10 -46 15c-2,-6 -3,-11 -4,-13 -1,-3 -4,-8 -9,-17l-39 -69 0 0 0 61c0,9 0,19 1,28 1,8 1,14 3,20l1 6 -49 16 1 -7c2,-9 3,-18 3,-28l1 -12 0 -135 -22 -30 56 -18zm159 -59l8 -3 18 -7c9,-3 17,-5 24,-5 7,0 14,2 20,6 10,6 17,15 23,28 5,12 8,28 8,46 0,23 -4,45 -12,67 -9,23 -20,42 -34,55 -6,6 -13,11 -21,16 -6,3 -11,6 -17,9l-9 4 -39 17 2 -8c2,-9 3,-18 3,-27l0 -5 0 -133 0 -8c0,-10 -1,-19 -3,-26l-2 -10 31 -14zm14 32l0 136 6 -2c6,-3 11,-7 16,-13 15,-17 22,-41 22,-71 0,-18 -3,-31 -9,-41 -7,-11 -16,-15 -27,-11l-8 3z"/>
    <path class="fil46" d="M3433 1585c14,55 38,88 65,114 -24,-51 -42,-101 -49,-151 -5,12 -10,25 -15,37z"/>
    <path class="fil46" d="M3584 1589c17,59 56,92 97,122 -39,-53 -72,-107 -99,-164 1,14 1,28 2,42z"/>
    <path class="fil46" d="M3742 1555c-1,52 42,82 83,113 -34,-40 -66,-82 -83,-142 0,10 0,20 0,29z"/>
    <path class="fil46" d="M3890 1551c19,39 57,69 105,96 -31,-28 -63,-55 -73,-91 -11,-2 -22,-3 -32,-5z"/>
    <path class="fil46" d="M4059 1495c43,47 93,84 145,119 -48,-13 -93,-37 -133,-71 -4,-16 -8,-32 -12,-48z"/>
    <path class="fil46" d="M4215 1503c13,1 26,1 39,2 58,52 121,72 184,94 -83,-15 -164,-35 -222,-96z"/>
    <path class="fil46" d="M3634 1801c16,7 33,15 49,22 33,88 90,172 149,256 -88,-77 -160,-165 -198,-278z"/>
    <path class="fil46" d="M3874 1777c15,80 74,157 147,233 -83,-38 -156,-119 -214,-262 22,10 45,19 67,29z"/>
    <path class="fil46" d="M3994 1730c20,74 108,161 211,250 -70,-81 -142,-163 -170,-237 -14,-4 -27,-8 -41,-12z"/>
    <path class="fil46" d="M4125 1699c92,140 184,222 275,271 -86,-81 -167,-163 -213,-259 -21,-4 -42,-8 -63,-12z"/>
    <path class="fil46" d="M4315 1733c100,104 231,169 364,211 -118,-62 -229,-127 -304,-207 -17,-1 -43,-3 -60,-4z"/>
    <path class="fil46" d="M4543 1723c182,110 316,141 433,143 -127,-30 -250,-66 -349,-139 -28,-1 -56,-3 -84,-4z"/>
    <path class="fil46" d="M4744 1656c182,79 331,71 470,35 -138,10 -264,7 -359,-34 -37,0 -74,-1 -111,-1z"/>
    <path class="fil46" d="M4874 1576c111,16 216,21 291,-26 -83,13 -163,14 -240,3 -17,8 -34,15 -51,23z"/>
    <path class="fil47" d="M1987 1245c-23,61 -22,50 -63,95 47,-3 93,-8 140,-32 -9,24 -17,49 -26,73 49,-18 97,-39 130,-73 6,5 12,11 18,16 -18,18 -25,36 -22,53 45,-51 93,-100 150,-140 -61,-20 -121,-41 -182,-61 -39,43 -84,81 -141,111 0,-11 0,-23 0,-34 -1,-3 -3,-5 -4,-8z"/>
    <path class="fil48" d="M2342 1192c17,-73 81,-125 172,-162 1,-9 1,-17 2,-26 -14,2 -29,4 -43,6 -1,-3 -1,-7 -2,-10 12,-3 25,-7 37,-10 29,-37 55,-79 45,-130 -22,-52 -86,-46 -154,-24 -150,61 -286,179 -391,203 12,7 24,13 36,20 -248,147 -440,220 -598,247 64,20 133,34 235,6 76,-20 157,-106 227,-109 -39,38 -78,76 -116,114 91,-23 174,-64 240,-143 1,-2 2,-4 3,-5 -4,26 -9,51 -13,77 77,-89 160,-159 250,-207 -25,44 -61,88 -103,132 64,-8 126,-34 184,-81 -23,34 -45,68 -68,102 19,0 38,0 57,0 0,0 0,-1 0,-1zm-62 -101c26,-14 53,-30 72,-57 13,-18 33,-41 63,-63 -29,10 -60,20 -75,45 -17,29 -39,51 -60,76z"/>
    <path class="fil46" d="M1695 1572c-16,23 -47,52 -75,75 39,-11 79,-37 115,-81 -13,2 -27,4 -40,6z"/>
    <path class="fil1" d="M2914 1687c-126,97 -298,169 -562,186l2 148c45,12 74,34 68,78l-349 0 0 448 336 0c7,41 -45,73 -97,68 197,188 417,331 602,358l0 0c0,0 1,0 1,0 0,0 1,0 1,0l0 0c186,-27 405,-170 602,-358 -52,5 -104,-27 -97,-68l309 0 0 -448 -342 0c-1,-35 33,-65 78,-77l0 -150c-219,-16 -402,-70 -552,-185l-1 0z"/>
    <path class="fil49 str2" d="M2915 1689c-63,48 -138,90 -229,122 -91,32 -200,54 -331,63l1 145c22,6 40,15 52,27 13,13 19,30 15,53l0 2 -2 0 -347 0 0 444 334 0 2 0 0 2c1,4 1,8 0,12 -1,14 -10,27 -22,37 -12,10 -29,17 -46,20 -8,1 -17,2 -25,2 26,25 53,49 79,72 28,24 57,48 86,70 147,113 298,192 432,212l1 0 1 0 0 0 0 0c26,-4 52,-10 80,-18 27,-8 55,-18 83,-30 142,-61 294,-172 434,-305 -9,0 -17,0 -25,-2 -18,-3 -34,-10 -46,-20 -12,-10 -21,-23 -22,-37 0,-4 0,-8 0,-12l0 -2 2 0 307 0 0 -444 -339 0 -2 0 0 -2c0,0 0,0 0,0 0,0 0,0 0,0 0,0 0,0 0,0m-703 -291c91,-32 166,-74 229,-123l1 0 1 0 1 0c75,57 158,99 250,129 92,30 192,47 301,55l2 0 0 2 0 150 0 2 -2 0c-32,9 -58,26 -70,48 -2,4 -4,9 -5,13 -1,4 -2,8 -2,12l339 0 2 0 0 2 0 448 0 2 -2 0 -307 0c0,3 0,6 0,9 1,13 9,25 21,34 12,9 27,16 44,19 10,2 20,2 30,1l2 4c-142,136 -296,248 -440,310 -28,12 -56,22 -83,31 -27,8 -53,14 -78,18l0 1 -3 0c0,0 0,0 -1,0 0,0 0,0 0,0 0,0 0,0 0,0 0,0 0,0 0,0l-3 0 0 -1c-134,-20 -285,-99 -432,-212 -29,-22 -57,-45 -86,-70 -28,-24 -56,-50 -84,-76l0 0 2 -4c10,1 21,1 30,-1 17,-3 33,-10 44,-19 12,-9 19,-21 21,-34 0,-3 0,-6 0,-9l-334 0 -2 0 0 -2 0 -448 0 -2 2 0 348 0c2,-20 -3,-36 -14,-47 -12,-12 -30,-21 -52,-27l-2 0 0 -2 -2 -148 0 -2 2 0c132,-8 241,-31 332,-63zm703 291c0,-5 1,-10 2,-15 1,-5 3,-9 6,-14 12,-22 39,-40 71,-50l0 -146c-109,-8 -209,-26 -300,-56 -92,-30 -175,-72 -251,-129"/>
    <path class="fil0" d="M2913 1762c-205,129 -384,156 -499,157l0 77c46,27 68,62 68,103l-10 446c-2,39 -18,70 -48,91 176,161 341,259 494,284 176,-45 335,-140 479,-286 -24,-24 -36,-52 -38,-85l-15 -446c-5,-46 19,-81 74,-104l3 -77c-126,11 -299,-47 -508,-159z"/>
    <path class="fil50" d="M2914 1783c-101,62 -195,100 -279,123 -78,21 -147,29 -203,31l0 50c4,2 7,5 11,7 6,4 11,9 17,14 27,26 41,56 41,91l0 0 -10 446 0 1c-1,22 -7,42 -16,60 -6,11 -14,22 -23,31 19,17 38,34 57,50 24,20 48,39 71,56 119,87 232,142 337,160 23,-6 46,-13 68,-21 24,-8 47,-17 70,-27 113,-50 219,-123 317,-220 -8,-10 -14,-20 -19,-31 -7,-16 -11,-34 -12,-53l-15 -446c-3,-27 3,-51 18,-72 13,-18 31,-33 56,-45l2 -46c-61,2 -131,-10 -210,-35 -84,-27 -177,-68 -279,-122zm-289 88c83,-23 178,-61 278,-124l9 -6 9 5c103,55 198,98 282,124 83,26 155,38 216,32l20 -2 -1 21 -3 77 -1 11 -10 4c-24,10 -41,23 -51,37 -10,14 -13,30 -11,48l0 1 15 446c0,14 3,27 9,40 5,12 13,24 24,34l13 13 -12 13c-105,106 -219,186 -341,240 -24,11 -48,20 -72,28 -24,8 -49,16 -74,22l0 0c0,0 0,0 0,0l-7 0c-113,-18 -232,-75 -357,-167 -24,-18 -49,-37 -73,-57 -24,-20 -49,-42 -74,-65l0 0 0 0 -17 -15 18 -13c13,-9 22,-20 29,-32 7,-13 11,-28 12,-45l0 0 10 -446c0,-24 -10,-46 -30,-65 -4,-4 -8,-8 -14,-11 -5,-4 -11,-7 -16,-11l0 0 0 0 -9 -5 0 -10 0 -77 0 -18 18 0c57,-1 129,-8 212,-30zm288 1031c0,0 0,0 0,0l0 0zm0 0c0,0 0,0 0,0l0 0z"/>
    <polygon class="fil1" points="2074,2101 3726,2101 3726,2546 2074,2546 "/>
    <polygon class="fil0" points="2131,2155 3684,2155 3684,2493 2131,2493 "/>
    <path class="fil50" d="M2131 2137l1553 0 18 0 0 18 0 338 0 18 -18 0 -1553 0 -18 0 0 -18 0 -338 0 -18 18 0zm1535 36l-1517 0 0 302 1517 0 0 -302z"/>
    <polygon class="fil2" points="2232,2343 2232,2446 2194,2446 2194,2208 2232,2209 2232,2298 2254,2298 2255,2209 2292,2208 2292,2446 2255,2446 2255,2343 "/>
    <path class="fil2" d="M2410 2444l-41 0 -7 -61 -19 0 -7 61 -41 0 31 -236 52 0 31 236zm-51 -97l-6 -69 -6 69 12 0z"/>
    <path class="fil2" d="M3069 2445l-41 0 -7 -61 -19 0 -7 61 -41 0 31 -236 52 0 31 236zm-51 -97l-6 -69 -6 69 12 0z"/>
    <path class="fil2" d="M2522 2446l-44 0c-5,-7 -7,-26 -7,-57l0 0 0 -14c0,-14 1,-17 1,-17 0,-8 -5,-9 -14,-9l0 98 -44 0 0 -237 54 0c12,0 23,3 32,10 9,7 14,17 14,32l0 28c0,37 -12,37 -29,44 18,5 30,12 29,33l-1 26c0,38 3,59 8,65zm-50 -155l0 -30c0,-8 -5,-13 -14,-13l0 56c9,0 14,-4 14,-13z"/>
    <polygon class="fil2" points="2595,2446 2526,2446 2526,2210 2564,2210 2564,2407 2594,2406 "/>
    <polygon class="fil2" points="2682,2446 2602,2446 2602,2208 2682,2208 2681,2247 2643,2247 2643,2300 2678,2300 2678,2336 2643,2336 2643,2407 2682,2407 "/>
    <path class="fil2" d="M2789 2209l-25 96 -12 48 0 94 -38 0 0 -92c-1,-8 -4,-25 -10,-49 -5,-21 -12,-53 -22,-96l36 0 17 84 19 -84 34 0z"/>
    <polygon class="fil2" points="2783,2311 2844,2311 2844,2343 2783,2343 "/>
    <path class="fil2" d="M2852 2445l0 -237 52 0c11,0 22,4 30,11 9,8 13,19 13,35l0 143c0,15 -4,26 -12,34 -8,8 -19,12 -31,12l-53 0zm54 -43l0 -151c0,-8 -4,-12 -12,-12l0 176c8,0 12,-4 12,-13z"/>
    <path class="fil2" d="M3209 2445l0 -237 52 0c11,0 22,4 30,11 9,8 13,19 13,35l0 143c0,15 -4,26 -12,34 -8,8 -19,12 -31,12l-53 0zm54 -43l0 -151c0,-8 -4,-12 -12,-12l0 176c8,0 12,-4 12,-13z"/>
    <polygon class="fil2" points="3152,2209 3129,2446 3076,2446 3053,2209 3089,2209 3102,2375 3115,2209 "/>
    <polygon class="fil2 str3" points="3159,2208 3198,2208 3198,2446 3159,2446 "/>
    <path class="fil2" d="M3316 2350l38 0 0 54c0,5 3,8 8,8 5,0 8,-3 8,-8l0 -28c0,-8 -5,-18 -14,-30 -18,-21 -29,-36 -33,-43 -4,-7 -6,-15 -6,-24l0 -26c0,-30 16,-46 48,-46 29,0 43,14 43,42l0 41 -38 0 0 -43c0,-5 -2,-7 -6,-7 -5,0 -7,5 -7,14l1 15c0,9 5,19 14,30 17,21 29,35 33,43 5,8 7,17 7,28l0 30c0,31 -16,47 -48,47 -31,0 -47,-14 -47,-43l0 -54z"/>
    <path class="fil2" d="M3420 2404l0 -153c0,-31 17,-46 50,-46 33,0 49,15 49,46l0 153c0,14 -5,24 -14,32 -9,7 -21,11 -36,11 -33,0 -49,-14 -49,-43zm56 2l0 -161c0,-5 -2,-7 -7,-7 -5,0 -7,2 -7,7l0 161c0,5 2,7 7,7 5,0 7,-2 7,-7z"/>
    <polygon class="fil2" points="3630,2445 3591,2445 3565,2319 3565,2445 3534,2445 3534,2209 3577,2209 3599,2316 3599,2209 3630,2209 "/>
    <path class="fil51" d="M2680 2094c-12,0 -24,0 -36,0 0,-15 0,-29 0,-44 0,-15 0,-29 0,-44 -3,16 -7,31 -11,45 -4,14 -7,28 -11,42 -9,0 -19,0 -28,0 -4,-13 -8,-26 -12,-40 -4,-13 -8,-26 -12,-39 0,13 0,26 0,39 0,13 0,26 0,39 -11,0 -21,0 -32,0 0,-22 0,-45 0,-67 0,-22 0,-45 0,-67 9,-1 17,-3 26,-4 9,-2 17,-3 26,-3 3,12 6,23 9,35 3,12 6,24 10,36 3,-13 5,-25 8,-38 3,-13 5,-26 8,-40 9,-3 18,-8 27,-13 9,-4 18,-6 27,-6 0,28 1,56 1,83 0,28 0,56 -1,83z"/>
    <path class="fil51" d="M2710 2061c0,-20 0,-41 0,-61 0,-20 0,-41 1,-61 0,-12 6,-21 16,-27 11,-6 26,-12 47,-21 21,-9 36,-9 47,-3 11,7 16,18 16,32 0,23 0,46 0,68 0,23 0,46 0,68 0,12 -6,22 -17,29 -6,3 -13,6 -20,8 -8,2 -16,2 -25,2 -21,0 -37,-3 -47,-8 -11,-6 -16,-14 -16,-26zm86 -7l0 -61c0,-11 4,-64 -8,-60 -8,3 -42,9 -43,23 -1,14 0,18 -1,43 -1,22 -1,36 1,57 1,10 22,9 29,8 6,0 16,-3 23,-10z"/>
    <path class="fil51" d="M3127 2061c0,-20 0,-41 0,-61 0,-20 0,-41 -1,-61 0,-12 -6,-21 -16,-27 -11,-6 -26,-12 -47,-21 -21,-9 -36,-9 -47,-3 -11,7 -16,18 -16,32 0,23 0,46 0,68 0,23 0,46 0,68 0,12 6,22 17,29 6,3 13,6 20,8 8,2 16,2 25,2 21,0 37,-3 47,-8 11,-6 16,-14 16,-26zm-86 -7l0 -61c0,-11 -4,-64 8,-60 8,3 42,9 43,23 1,14 0,18 1,43 1,22 1,36 -1,57 -1,10 -22,9 -29,8 -6,0 -16,-3 -23,-10z"/>
    <path class="fil0" d="M2847 1879c25,-10 48,-23 69,-43 23,20 46,34 69,42l-71 -25 1 241"/>
    <path class="fil50" d="M2840 1862c11,-4 22,-10 33,-16 8,-5 16,-10 23,-16l0 -2 2 1c2,-2 4,-3 6,-5l13 -11 13 11c11,9 21,17 32,24 8,5 16,9 24,12l7 3 -12 36c0,0 0,0 -1,0l0 0 -1 0c-2,-1 -3,-1 -5,-2l-39 -14 1 214 -38 0 -1 -219c-1,1 -2,1 -3,2 -12,8 -25,14 -39,19l-14 -35z"/>
    <path class="fil51" d="M3295 2095l-47 0c1,0 1,-25 1,-28 0,-20 -44,-11 -49,-10l0 39 -37 0 0 -166c16,9 34,15 56,19 8,1 43,2 55,7 10,4 13,14 13,23l0 17c0,30 8,45 -19,48 15,7 23,0 19,29 -1,7 -2,21 9,23zm-45 -77l0 -31c0,-7 -20,-6 -51,-4l0 40c30,1 48,-1 50,-4z"/>
    <path class="fil51 str3" d="M2609 2590l0 -37 -65 -1c-8,2 -14,7 -18,15l1 72c1,7 4,13 10,19l61 48c4,4 7,3 9,1l1 -34c0,-4 -2,-7 -4,-10l-33 -24c-4,-2 -7,-5 -10,-10l-1 -32c1,-5 4,-7 9,-7l41 0z"/>
    <path class="fil51" d="M2706 2785c-13,-9 -26,-18 -39,-27 -13,-9 -26,-18 -39,-27 0,-29 0,-59 0,-88 0,-29 0,-59 0,-88 7,0 14,0 22,0 7,0 14,0 22,0 -1,50 -1,99 -1,149l39 24c-1,19 -2,38 -3,56z"/>
    <path class="fil51" d="M2723 2768l0 -170c0,-42 6,-50 53,-50 57,0 55,11 56,50l2 171c0,15 4,52 -13,63 -17,10 -100,-33 -97,-64zm61 -10l1 -145c0,-15 -2,-19 -8,-19 -6,0 -7,6 -7,21l-1 142c0,11 1,12 7,12 6,0 8,0 8,-11z"/>
    <polyline class="fil0" points="2841,2572 2988,2574 2915,2575 2915,2864 "/>
    <polygon class="fil50" points="2842,2553 2988,2555 2988,2593 2934,2594 2934,2864 2896,2864 2896,2592 2841,2591 "/>
    <polygon class="fil51 str3" points="3002,2555 3001,2846 3038,2828 3038,2693 3077,2689 3077,2806 3113,2792 3113,2555 3077,2555 3077,2629 3037,2631 3037,2555 "/>
    <path class="fil51" d="M3211 2724l-65 47c-6,3 -9,0 -11,-8l3 -208 73 0 0 36 -44 0 1 34 45 0 0 33 -45 1 0 48 45 -33 -1 50z"/>
    <path class="fil51 str3" d="M3224 2655c14,7 39,-2 54,-26l-41 -1c-5,0 -9,-3 -12,-10l-1 -49c0,-8 5,-12 14,-14l76 0 0 28 -53 0c-4,2 -6,5 -7,9 2,8 5,12 11,12l41 0c6,2 9,7 11,15 1,12 -1,24 -5,36l-73 51c-6,5 -10,4 -13,-3l-1 -49z"/>
    <path class="fil52" d="M2628 1341c-20,4 -34,10 -35,20 -8,19 72,44 -20,121 -55,17 -115,24 -181,56 -3,-16 5,-32 4,-43 5,5 2,14 7,20 51,-24 102,-44 144,-65 35,-15 45,-28 36,-34 -39,-26 -93,-25 -154,-11 -42,19 -51,32 -66,38 -16,0 -33,3 -49,3 -7,37 -15,63 -25,82 -42,-40 -78,-81 -77,-132 11,-49 61,-96 149,-143l40 27 44 35 69 18 41 2 44 -2 28 7z"/>
    <path class="fil53" d="M3365 1209c25,53 42,121 40,188 -15,-13 -29,-26 -44,-38 46,109 45,235 22,370 -5,-43 -12,-86 -27,-129 -2,73 -16,142 -33,211 2,-40 3,-80 -5,-121 -10,31 -22,59 -36,82 4,-28 6,-57 -5,-85 -28,87 -65,128 -104,162 -10,-47 59,-118 30,-189 -5,33 -33,66 -71,99 12,-29 24,-59 16,-69 -20,0 -60,32 -93,55 10,-26 17,-55 38,-69 -12,8 -47,8 -85,8 77,-27 138,-68 143,-159 14,-4 21,12 27,30 20,-47 20,-83 9,-113l10 -38 18 -14c8,15 14,31 20,48 2,-21 4,-41 1,-63l25 -19 31 -48c7,9 14,19 19,28 -3,-14 -6,-27 -11,-42l17 -26 49 -60zm-192 267c-1,9 -2,18 -3,28 -2,-6 -4,-12 -6,-17l10 -11zm114 -45c15,7 30,21 45,42 -1,39 -7,69 -15,96 -3,-57 -14,-103 -30,-138z"/>
    <path class="fil46" d="M3424 1240c0,-1 0,-1 0,-2 1,-8 2,-16 3,-24 6,17 15,32 26,49 -10,-8 -22,-14 -29,-24z"/>
    <path class="fil46" d="M3721 1206c4,0 8,0 12,-1 3,-4 4,-8 6,-13 7,13 19,27 30,38 -16,-4 -35,-15 -48,-24z"/>
    <path class="fil46" d="M3643 1202c11,2 21,3 32,4 6,27 23,53 46,73 -37,-17 -67,-42 -78,-77z"/>
    <path class="fil46" d="M3501 1203c15,5 29,9 44,11 2,27 14,54 31,77 -45,-22 -68,-54 -74,-89z"/>
    <path class="fil46" d="M3448 1178c11,7 23,13 34,18 -2,28 9,53 22,75 -32,-18 -54,-47 -56,-92z"/>
    <path class="fil46" d="M4041 1352c15,6 30,11 45,16 18,26 51,48 83,68 -57,-15 -106,-39 -128,-84z"/>
    <path class="fil46" d="M3874 1320c18,-5 35,-9 53,-15l4 25 -57 -10z"/>
    <path class="fil46" d="M3820 1333c9,-2 19,-4 28,-6 18,34 54,65 87,93 -45,-24 -90,-53 -115,-86z"/>
    <path class="fil46" d="M3740 1348c19,-3 37,-6 55,-10l1 25 -56 -15z"/>
    <path class="fil46" d="M3683 1357c15,-2 29,-4 44,-6 11,31 42,59 71,84 -39,-17 -81,-40 -115,-78z"/>
    <path class="fil46" d="M3673 1394c-1,-1 -2,-3 -4,-4 -1,3 -2,6 -2,9l-51 -35c16,-1 31,-3 47,-5l14 29 -4 6z"/>
    <path class="fil46" d="M3557 1368c14,-1 28,-2 42,-3 -2,26 21,62 47,97 -35,-28 -68,-60 -88,-94z"/>
    <path class="fil46" d="M3478 1371c19,0 39,-1 58,-2l-3 45 -55 -44z"/>
    <path class="fil46" d="M3429 1371c11,0 22,0 33,0 0,30 23,65 46,96 -32,-21 -60,-54 -79,-97z"/>
    <path class="fil46" d="M4383 1476c-2,-19 -20,-40 -34,-55 0,0 0,0 0,-1 78,48 163,81 253,100 -58,4 -133,-13 -218,-45z"/>
    <path class="fil46" d="M2279 1226c-8,-3 -16,-5 -24,-8 -9,19 -37,48 -69,83 19,5 51,-22 93,-75z"/>
    <path class="fil46" d="M2245 1214c-10,-3 -19,-6 -29,-10 -10,30 -37,61 -66,86 31,-12 64,-36 95,-76z"/>
    <path class="fil46" d="M2205 1201c-20,-7 -39,-13 -59,-20 -21,37 -55,70 -87,98 31,-12 67,-32 116,-82 -7,39 -39,71 -75,102 35,-11 72,-42 104,-98z"/>
    <path class="fil46" d="M2202 1450c-5,-17 -9,-34 -14,-50 -12,38 -41,70 -66,103 31,-14 61,-34 80,-53z"/>
    <path class="fil46" d="M2082 1399c-13,4 -26,9 -38,13 -5,34 -43,68 -80,99 41,-15 81,-36 119,-112z"/>
    <path class="fil46" d="M1995 1380c-15,0 -31,-1 -46,-1 -30,34 -75,66 -118,94 57,-18 115,-47 164,-93z"/>
    <path class="fil46" d="M1780 1362c-14,0 -28,0 -43,-1 -37,44 -90,69 -144,91 57,-1 121,-34 186,-90z"/>
    <path class="fil46" d="M2384 1617c-11,6 -22,11 -33,17 -3,36 -18,75 -34,111 29,-31 54,-71 67,-128z"/>
    <path class="fil46" d="M2279 1583c-11,-5 -23,-11 -34,-16 -2,1 -5,3 -7,4 -11,37 -47,87 -78,130 41,-34 84,-74 119,-118z"/>
    <path class="fil46" d="M2121 1563c-9,2 -18,5 -27,7 -7,2 -13,3 -20,5 -14,40 -44,84 -71,123 41,-34 82,-78 118,-134z"/>
    <path class="fil46" d="M1931 1583c-12,2 -24,4 -38,5 -22,34 -44,52 -66,70 38,-14 73,-37 103,-75z"/>
    <path class="fil46" d="M1729 1573c-13,2 -26,4 -38,5 -17,22 -45,48 -71,69 37,-10 74,-35 109,-74z"/>
    <path class="fil46" d="M1624 1521c-22,0 -45,0 -67,-1 -45,33 -102,54 -156,72 80,-5 157,-30 224,-72z"/>
    <path class="fil46" d="M1430 1485c2,-1 4,-3 6,-5 13,-11 27,-21 40,-32 -85,22 -174,33 -259,50 67,-3 136,-1 213,-14z"/>
    <path class="fil46" d="M2012 1781c-26,7 -52,14 -78,21 -24,62 -72,124 -115,179 67,-52 135,-117 194,-200z"/>
    <path class="fil46" d="M1856 1743c-16,5 -32,10 -48,14 -40,64 -98,146 -155,218 82,-64 161,-138 203,-233z"/>
    <path class="fil46" d="M1652 1735c1,0 2,0 3,-1 15,1 29,1 44,2 0,8 -1,18 -1,23 -77,82 -162,139 -249,193 70,-66 141,-142 203,-217z"/>
    <path class="fil46" d="M1475 1757c-16,-3 -32,-5 -48,-8 -78,75 -188,139 -292,192 98,-25 210,-69 339,-184z"/>
    <path class="fil46" d="M1211 1700c23,7 48,12 76,14 -138,88 -277,118 -415,127 123,-30 244,-70 339,-141z"/>
    <path class="fil46" d="M947 1647c0,0 1,0 1,0 46,6 93,12 139,18 -143,22 -273,25 -382,10 78,-2 170,-8 242,-27z"/>
    <path class="fil46" d="M994 1535c-15,-9 -29,-18 -42,-28 -81,9 -166,13 -243,13 84,24 183,28 285,15z"/>
    <path class="fil46" d="M2166 1783c-20,8 -40,16 -60,24 -38,74 -88,150 -137,221 66,-62 133,-132 197,-245z"/>
    <path class="fil54" d="M2259 2677c-35,42 -80,65 -135,69 -105,-3 -233,-98 -350,-207 -97,-107 -211,-155 -289,-165 -69,19 -69,88 1,164 219,185 493,295 775,331 -1,-64 -2,-127 -2,-191z"/>
    <path class="fil45" d="M1533 2574c50,38 103,73 157,105 -16,-58 -31,-122 -47,-180 -42,-43 -94,-71 -155,-85 15,52 30,108 45,161z"/>
    <path class="fil45" d="M1742 2707c13,7 26,13 39,20l-34 -147 -42 -33 38 161z"/>
    <path class="fil45" d="M4263 2597c-50,36 -102,68 -156,97 15,-57 30,-117 46,-174 42,-43 94,-71 155,-85 -16,53 -30,109 -45,162z"/>
    <path class="fil45" d="M4076 2710c-13,6 -26,13 -39,19l35 -142 42 -33 -38 157z"/>
    <path class="fil45" d="M1937 2634c11,8 22,16 33,23 -7,-116 -35,-281 -77,-396 -4,1 -8,1 -12,2 -11,2 -19,2 -36,5 67,127 71,224 92,366z"/>
    <path class="fil45" d="M2032 2691c47,20 91,27 134,16 -4,-121 -32,-252 -56,-337 -35,-9 -82,-48 -148,-77 54,119 61,244 70,398z"/>
   </g>
  </g>
 </g>
</svg>
