<?xml version="1.0" standalone="no"?>
<!DOCTYPE svg PUBLIC "-//W3C//DTD SVG 20010904//EN"
 "http://www.w3.org/TR/2001/REC-SVG-20010904/DTD/svg10.dtd">
<svg version="1.0" xmlns="http://www.w3.org/2000/svg"
 width="2008.000000pt" height="2008.000000pt" viewBox="0 0 2008.000000 2008.000000"
 preserveAspectRatio="xMidYMid meet">
<metadata>
Created by potrace 1.13, written by Peter Selinger 2001-2015
</metadata>
<g transform="translate(0.000000,2008.000000) scale(0.100000,-0.100000)"
fill="#000000" stroke="none">
<path d="M12135 18175 c-60 -62 -155 -148 -210 -191 -490 -387 -1486 -902
-2875 -1486 -461 -194 -1448 -583 -1925 -760 -458 -169 -966 -353 -1351 -488
-383 -135 -431 -154 -427 -171 3 -11 14 -19 27 -19 11 0 169 18 350 41 l329
41 216 78 c683 247 1224 451 1853 699 276 108 437 172 863 346 319 130 866
366 1200 518 1110 504 1770 884 2087 1199 l97 97 48 -5 c26 -2 244 -18 483
-34 3018 -205 4749 -297 6580 -350 190 -5 402 -10 473 -10 l127 0 0 94 0 95
-52 5 c-29 3 -199 8 -378 11 -1597 28 -4645 194 -7165 390 -104 8 -201 14
-215 14 -18 -1 -55 -32 -135 -114z"/>
<path d="M12367 17914 c-68 -78 -301 -260 -487 -379 -497 -319 -1411 -772
-2390 -1185 -107 -45 -224 -95 -260 -110 -36 -15 -104 -44 -152 -64 -673 -276
-1403 -561 -2145 -837 -138 -52 -251 -95 -249 -96 2 -2 255 29 2191 267 721
88 1857 228 2525 310 668 82 1676 206 2240 275 1677 206 2302 283 2730 335
223 27 1028 126 1790 220 762 94 1505 185 1652 203 l268 32 0 336 0 336 -257
7 c-1928 50 -3704 141 -6733 346 -322 22 -607 42 -635 44 -49 5 -51 4 -88 -40z"/>
<path d="M19740 16359 c-227 -39 -839 -109 -954 -109 -51 0 -55 -12 -96 -275
-76 -499 -239 -1370 -325 -1739 -30 -128 -34 -160 -24 -172 8 -9 21 -13 35
-10 30 8 713 92 933 115 183 20 191 23 191 72 0 37 30 180 42 203 8 14 5 23
-8 37 -18 17 -23 17 -129 -7 -144 -32 -446 -84 -490 -84 -32 0 -35 2 -30 23 2
12 12 67 20 122 8 55 36 209 62 343 42 216 49 243 68 247 40 9 333 35 473 41
88 5 146 12 152 19 5 6 14 49 19 96 6 46 18 106 27 132 29 84 28 85 -257 38
-310 -51 -373 -60 -378 -55 -6 6 61 362 96 510 l26 112 46 6 c25 3 168 13 316
22 149 9 276 21 283 26 6 6 12 25 12 43 0 39 24 169 38 205 7 18 6 31 -3 43
-14 20 -9 20 -145 -4z"/>
<path d="M17720 16109 c-47 -10 -150 -24 -230 -30 -80 -7 -148 -15 -152 -18
-4 -4 -21 -99 -37 -211 -69 -477 -230 -1336 -331 -1774 -45 -190 -43 -203 20
-192 71 12 829 105 955 117 72 7 136 17 143 22 6 5 12 24 12 41 0 27 28 161
46 223 11 39 -21 44 -131 17 -55 -13 -183 -37 -285 -54 -102 -17 -198 -33
-214 -35 l-29 -5 7 52 c5 51 53 318 131 738 76 414 98 524 161 809 50 227 62
296 53 307 -13 16 -10 17 -119 -7z"/>
<path d="M16405 15996 c-640 -106 -1106 -520 -1286 -1142 -123 -428 -80 -758
128 -959 65 -63 142 -108 254 -147 l94 -33 205 0 c175 0 221 3 315 23 146 31
298 82 405 137 l88 46 27 77 c15 42 40 103 56 134 34 67 37 103 10 118 -31 16
-36 13 -105 -48 -115 -102 -289 -194 -431 -228 -122 -28 -267 -14 -367 37 -52
27 -124 105 -158 172 -49 98 -63 187 -57 355 13 364 157 730 376 955 129 133
238 204 380 247 99 31 262 26 331 -10 49 -25 154 -127 164 -158 8 -24 40 -34
71 -22 17 6 28 26 44 81 12 39 40 114 62 165 23 51 39 101 37 111 -4 22 -85
55 -188 78 -102 22 -352 28 -455 11z"/>
<path d="M15120 15789 c-14 -6 -66 -13 -117 -16 -50 -3 -95 -9 -100 -12 -5 -3
-70 -114 -146 -246 -170 -299 -267 -458 -375 -613 -35 -52 -68 -90 -72 -85
-12 11 -76 227 -155 513 -99 366 -82 325 -135 324 -25 0 -86 -8 -136 -17 -50
-9 -151 -22 -225 -28 -73 -6 -137 -13 -141 -15 -4 -3 -8 -13 -8 -22 0 -9 54
-179 119 -377 66 -198 151 -460 190 -583 l71 -223 -26 -147 c-33 -192 -34
-197 -106 -484 -57 -225 -62 -249 -47 -263 13 -13 24 -14 60 -6 24 5 132 19
239 31 107 12 202 25 210 29 11 6 18 41 27 129 15 154 62 441 108 657 34 164
38 173 92 260 135 214 341 533 542 835 118 179 215 334 215 345 1 15 -6 20
-29 22 -16 1 -41 -2 -55 -8z"/>
<path d="M12735 15544 c-690 -129 -1146 -567 -1304 -1254 -121 -525 39 -884
446 -1002 69 -20 100 -23 268 -23 157 0 209 4 303 23 148 30 274 72 398 132
l101 49 33 88 c18 48 45 113 60 143 19 39 25 61 20 76 -17 44 -57 38 -115 -18
-53 -52 -198 -143 -286 -180 -132 -55 -213 -72 -322 -66 -122 7 -191 34 -266
103 -135 126 -181 355 -131 651 58 340 184 600 389 804 141 142 280 216 443
239 174 24 295 -31 405 -184 16 -22 28 -29 49 -27 16 1 32 6 37 11 5 5 24 54
42 108 17 54 44 122 59 151 40 80 34 102 -38 130 -99 40 -183 53 -351 57 -115
3 -183 0 -240 -11z"/>
<path d="M10715 15259 c-38 -5 -164 -24 -280 -43 -115 -19 -255 -37 -310 -41
-54 -3 -102 -10 -105 -16 -4 -5 -19 -96 -34 -202 -72 -494 -219 -1278 -352
-1869 -20 -91 -12 -114 38 -103 16 4 127 19 246 34 l217 26 32 225 c32 218
108 665 120 704 4 13 32 -52 84 -195 44 -118 99 -268 123 -334 25 -66 61 -165
81 -220 37 -101 57 -130 84 -120 14 6 338 48 448 58 61 6 73 12 73 35 0 10
-49 124 -109 254 -122 264 -225 502 -269 623 l-30 81 47 19 c189 77 366 248
447 431 70 157 84 365 33 474 -32 69 -90 129 -155 160 -44 22 -63 24 -204 26
-85 1 -186 -2 -225 -7z m48 -266 c50 -30 69 -73 69 -156 0 -247 -102 -466
-263 -565 -69 -42 -239 -88 -239 -65 0 10 94 500 133 688 l22 110 55 6 c87 11
187 2 223 -18z"/>
<path d="M8630 15043 c-74 -9 -263 -55 -325 -79 -376 -141 -685 -419 -874
-784 -114 -221 -160 -401 -168 -651 -6 -172 7 -270 53 -383 117 -293 420 -431
847 -387 357 37 660 179 921 431 329 318 512 750 493 1165 -10 222 -68 366
-197 495 -86 87 -155 127 -285 166 -80 23 -109 27 -260 29 -93 2 -186 1 -205
-2z m182 -253 c165 -61 251 -231 251 -490 0 -422 -208 -920 -477 -1140 -82
-67 -223 -137 -316 -156 -140 -29 -294 -1 -368 69 -103 96 -149 299 -123 542
26 237 83 439 180 640 157 323 370 512 631 559 52 9 167 -3 222 -24z"/>
<path d="M7270 14829 c-240 -39 -669 -93 -1005 -125 -214 -21 -283 -31 -292
-43 -7 -8 -13 -38 -13 -66 0 -28 -7 -75 -15 -105 -28 -101 -29 -119 -10 -126
9 -4 67 5 129 19 145 33 374 72 382 65 3 -3 -4 -59 -16 -124 -65 -363 -216
-1161 -245 -1299 -40 -189 -95 -426 -100 -436 -3 -3 1 -14 8 -23 11 -16 25
-15 206 9 107 14 213 25 236 25 23 0 48 6 57 13 10 8 22 62 37 177 13 91 36
244 52 340 37 220 247 1354 255 1373 6 16 84 24 337 34 92 3 170 10 173 14 3
5 9 44 14 88 5 43 16 105 25 136 13 44 14 59 5 70 -15 18 -6 19 -220 -16z"/>
<path d="M4855 14579 c-426 -54 -839 -316 -1091 -694 -182 -274 -267 -544
-268 -855 -1 -182 14 -258 77 -390 31 -66 56 -101 111 -156 108 -107 197 -150
375 -179 124 -21 346 -16 480 10 425 83 817 362 1050 748 160 266 228 519 218
817 -6 176 -19 235 -78 356 -66 134 -180 236 -330 294 -143 55 -347 73 -544
49z m108 -229 c208 -34 321 -191 334 -465 12 -239 -66 -571 -191 -810 -72
-139 -119 -208 -206 -299 -153 -160 -331 -246 -510 -246 -207 0 -328 105 -371
325 -36 176 10 516 104 775 76 211 170 364 306 500 133 133 250 199 391 219
78 12 79 12 143 1z"/>
<path d="M3260 14334 c-25 -8 -77 -14 -116 -14 -41 0 -77 -5 -86 -12 -8 -7
-59 -89 -113 -183 -211 -367 -742 -1241 -807 -1328 -13 -17 -23 10 -91 240
-76 256 -263 936 -287 1045 -16 69 -26 74 -106 53 -33 -8 -85 -15 -117 -14
-32 1 -62 -2 -66 -7 -5 -5 -34 -97 -66 -204 -140 -478 -326 -1063 -502 -1585
-46 -137 -96 -285 -110 -327 -32 -93 -25 -111 35 -98 20 4 82 13 138 20 55 7
105 15 111 18 5 4 56 192 112 417 100 400 221 851 245 909 11 27 16 14 73
-190 62 -220 198 -713 254 -919 16 -60 37 -115 45 -121 14 -11 63 -10 121 2
12 2 30 19 40 36 137 234 837 1397 840 1395 7 -8 -66 -745 -107 -1077 -24
-194 -27 -237 -16 -248 11 -11 31 -11 117 2 57 8 156 20 219 26 183 18 177 13
179 159 2 153 26 494 111 1566 16 209 30 392 30 407 0 39 -25 49 -80 32z"/>
<path d="M19100 13660 c-989 -123 -1429 -177 -3080 -380 -536 -66 -1508 -185
-2160 -265 -652 -80 -1293 -159 -1425 -175 -132 -16 -1012 -124 -1955 -240
-943 -116 -1879 -231 -2080 -255 -437 -54 -591 -73 -980 -120 -162 -19 -308
-39 -325 -43 -22 -6 28 -14 180 -31 760 -83 1611 -192 2345 -302 1873 -279
3095 -579 3587 -880 l65 -40 67 21 c36 12 167 54 291 95 557 182 2021 650
2280 730 41 13 190 59 330 103 140 44 350 110 465 145 116 36 278 86 360 112
873 271 2272 684 2953 870 l62 18 0 378 c0 297 -3 379 -12 378 -7 -1 -443 -54
-968 -119z"/>
<path d="M20025 12889 c-16 -5 -244 -70 -505 -145 -525 -149 -1176 -340 -1605
-470 -971 -295 -2024 -623 -2805 -874 -135 -43 -366 -118 -515 -165 -319 -102
-538 -173 -805 -260 -457 -149 -508 -165 -528 -165 -12 0 -53 20 -91 45 -127
82 -314 167 -536 243 -1010 347 -3177 710 -5997 1004 l-217 22 -313 -38 c-427
-51 -390 -45 -382 -70 4 -11 7 -22 8 -22 0 -1 132 -14 291 -28 2360 -215 4403
-512 5665 -823 411 -101 697 -188 980 -300 191 -76 272 -115 390 -188 71 -44
91 -52 120 -48 203 26 260 38 410 87 1403 460 2061 672 2930 944 1154 362
2146 659 3040 912 256 72 476 135 490 139 24 7 25 11 28 109 3 110 4 108 -53
91z"/>
<path d="M18780 10163 c-19 -2 -228 -22 -465 -44 -414 -38 -732 -68 -1755
-164 -261 -25 -644 -60 -850 -80 -585 -54 -3345 -312 -3635 -340 -143 -14
-406 -38 -585 -55 -506 -47 -532 -49 -755 -71 -115 -11 -354 -33 -530 -49
-176 -17 -441 -41 -590 -55 -148 -14 -436 -41 -640 -60 -203 -19 -491 -46
-640 -60 -148 -14 -488 -46 -755 -70 -267 -25 -510 -49 -540 -53 l-55 -7 26
-335 c15 -184 30 -366 33 -405 3 -38 15 -180 26 -315 11 -135 22 -272 25 -305
31 -366 126 -1541 155 -1915 12 -146 24 -272 28 -281 6 -14 37 -13 312 12 477
44 1155 107 1380 129 113 11 376 36 585 55 209 20 547 51 750 70 204 19 757
71 1230 115 473 44 905 84 960 90 55 5 269 26 475 45 206 19 762 71 1235 115
991 93 1354 127 1870 175 204 19 489 46 635 59 146 14 746 70 1334 126 589 55
1073 103 1077 107 5 7 -8 202 -35 513 -3 36 -17 205 -31 375 -14 171 -34 416
-44 545 -11 129 -34 408 -51 620 -100 1222 -126 1514 -135 1515 -5 1 -26 0
-45 -2z m-2492 -1074 c140 -69 211 -222 212 -450 l0 -97 -60 -61 -60 -61 -40
20 c-64 33 -82 70 -76 158 4 44 2 72 -4 72 -18 0 -70 83 -82 128 -9 38 -14 43
-32 37 -97 -28 -168 -37 -263 -31 -56 3 -129 3 -162 -1 l-60 -6 43 -33 c50
-38 63 -62 40 -71 -15 -5 -186 2 -229 10 -18 4 -20 -3 -26 -77 -3 -54 -1 -101
9 -141 17 -69 21 -200 9 -297 l-9 -68 34 0 c45 1 113 33 133 64 10 15 23 43
30 63 10 29 19 37 41 41 16 2 37 11 48 20 22 21 59 93 76 150 7 23 15 42 18
42 3 0 45 -12 94 -27 l88 -26 0 -94 c0 -97 17 -202 48 -293 l18 -53 -43 -64
-43 -65 -118 -3 c-99 -3 -250 -23 -301 -41 -19 -6 23 -51 64 -70 27 -12 28
-13 7 -14 -28 0 -83 -27 -99 -49 -7 -9 -17 -29 -23 -45 -10 -28 -9 -29 9 -12
21 19 23 17 41 -37 11 -36 10 -41 -13 -65 -35 -38 -42 -81 -22 -147 l16 -56
42 5 c23 3 78 8 122 11 108 9 257 38 330 66 35 13 76 38 98 59 31 31 37 45 37
78 0 23 -7 56 -16 75 -15 32 -15 35 10 72 17 24 26 51 26 76 0 34 7 43 65 95
l65 57 78 -12 c114 -18 112 -17 112 -59 0 -64 20 -164 50 -249 16 -46 24 -85
19 -88 -5 -4 -9 -21 -9 -38 0 -18 -7 -50 -15 -72 -8 -22 -14 -66 -15 -99 0
-46 -6 -70 -30 -111 -30 -52 -31 -53 -98 -66 -77 -15 -251 -16 -432 -2 -97 7
-163 6 -293 -6 -163 -15 -170 -17 -190 -43 -22 -27 -23 -27 -95 -18 -41 5 -88
8 -105 5 -18 -2 -54 -7 -80 -10 -26 -3 -71 -14 -100 -24 l-53 -18 -29 29 c-27
26 -30 36 -29 87 2 132 85 199 256 209 48 3 88 8 88 11 0 3 -10 53 -21 111
-29 142 -32 335 -6 402 22 58 65 96 117 104 l38 6 -45 66 c-112 164 -170 344
-189 586 l-7 88 -44 20 c-64 28 -137 33 -212 14 -34 -9 -68 -16 -75 -16 -12 0
-36 73 -36 109 0 10 6 21 14 24 8 3 25 24 38 47 31 54 69 64 220 57 84 -4 137
-2 185 8 38 8 106 15 153 15 57 0 118 8 183 25 158 40 272 57 337 49 47 -5 64
-3 89 12 17 10 31 22 31 26 0 17 50 7 108 -23z m-2421 -219 c43 -26 52 -28 88
-20 61 15 224 12 288 -5 207 -54 356 -232 441 -527 l24 -83 -23 -46 c-13 -25
-30 -72 -39 -104 -8 -33 -20 -61 -26 -63 -56 -19 -195 -143 -266 -236 l-44
-58 63 -58 c94 -87 156 -230 157 -362 l0 -37 64 0 c114 0 180 -52 217 -172 10
-33 19 -67 19 -74 0 -20 -103 -65 -175 -77 -66 -11 -184 6 -258 37 -34 14 -34
14 -41 97 -30 339 -133 561 -301 643 -63 31 -189 44 -263 27 -32 -8 -54 -6
-90 5 -26 8 -74 20 -107 27 l-60 12 0 84 c0 47 4 104 8 126 8 41 8 42 -25 53
l-34 11 -12 93 c-6 50 -24 144 -40 207 -21 81 -27 122 -21 138 5 13 9 41 9 62
l0 39 -57 11 c-32 7 -76 20 -99 30 -46 20 -116 78 -109 90 3 5 24 11 48 15 23
4 98 26 167 48 120 39 131 40 258 41 133 1 134 1 155 28 12 15 25 27 29 27 4
1 28 -12 55 -29z m-1739 -150 l63 0 148 -145 c82 -80 154 -145 159 -145 5 0
12 -9 15 -20 3 -10 20 -27 39 -36 32 -15 36 -23 52 -90 16 -69 20 -74 52 -86
l34 -12 0 -100 c0 -55 7 -144 16 -197 16 -95 16 -97 -4 -125 -19 -27 -20 -36
-11 -129 31 -347 -80 -633 -305 -784 -124 -84 -307 -144 -476 -158 l-65 -5
-79 54 c-99 66 -234 192 -292 273 -93 131 -134 253 -140 420 l-4 110 -37 34
-37 34 12 146 c24 308 91 518 218 688 72 96 159 167 271 220 110 52 157 63
243 58 36 -3 93 -5 128 -5z m-1424 -169 c40 -65 82 -106 151 -146 25 -15 45
-34 45 -43 0 -9 -23 -37 -50 -63 l-51 -47 21 -79 c13 -48 24 -125 27 -198 8
-158 -8 -217 -75 -284 -26 -26 -58 -50 -71 -54 -20 -5 -26 2 -50 56 -16 35
-42 84 -58 111 l-31 49 21 56 c24 66 29 219 8 289 l-12 43 -47 -7 c-64 -9
-196 -51 -255 -81 l-49 -24 -46 30 c-26 17 -50 27 -55 22 -13 -13 -12 -222 2
-263 14 -44 53 -78 88 -78 13 0 47 10 74 21 27 12 51 20 53 18 2 -2 7 -48 11
-103 8 -110 13 -106 -68 -48 -26 19 -50 32 -53 30 -3 -3 -10 -60 -16 -128 -18
-195 12 -429 82 -636 23 -66 28 -97 23 -127 -5 -35 -4 -39 11 -34 41 16 154
29 211 25 117 -10 175 -58 183 -153 l4 -52 -58 -21 c-33 -12 -84 -27 -114 -33
-69 -15 -227 -6 -299 16 -54 17 -55 16 -106 -9 -121 -59 -308 -95 -419 -82
l-56 7 0 70 c0 65 26 169 48 191 5 5 21 4 36 -2 55 -21 159 -23 247 -6 46 10
88 21 93 26 5 5 -7 87 -29 200 l-38 191 17 75 c32 146 18 314 -39 473 -27 73
-27 74 -11 132 9 31 20 88 25 126 l8 68 -52 56 c-51 53 -71 96 -89 189 -5 25
-5 25 -118 25 -69 0 -121 -5 -134 -13 -28 -15 -44 -62 -44 -128 0 -59 6 -55
-108 -79 -113 -23 -112 -24 -112 38 0 28 -9 95 -20 147 -11 52 -20 96 -20 96
0 1 23 9 52 19 28 9 75 31 103 50 47 30 56 32 96 24 97 -18 272 -2 379 36 41
15 52 15 130 -1 132 -26 307 -8 476 50 38 13 74 24 80 25 6 0 28 -26 48 -58z
m-2072 -207 c72 -53 161 -153 152 -173 -45 -107 -57 -161 -59 -266 l-3 -109
-28 -9 c-42 -12 -129 0 -176 24 -65 33 -125 103 -173 203 -25 51 -45 97 -45
104 0 18 -47 27 -145 27 -72 0 -98 -4 -130 -21 -52 -27 -101 -92 -121 -160 -9
-34 -24 -60 -38 -69 -47 -31 -60 -101 -25 -136 15 -15 19 -28 14 -48 -3 -16
-1 -49 6 -75 l11 -46 47 0 c25 0 66 9 90 20 24 11 45 20 46 20 2 0 14 -18 26
-40 28 -49 79 -86 139 -99 74 -16 243 -41 281 -41 26 0 58 -15 119 -55 47 -31
121 -69 166 -86 l81 -31 12 -52 c6 -28 34 -103 61 -166 62 -146 68 -217 27
-294 -15 -27 -32 -75 -39 -107 -7 -34 -18 -61 -27 -64 -8 -3 -51 -9 -95 -12
-77 -6 -83 -8 -142 -55 -107 -83 -251 -138 -364 -138 -110 0 -247 48 -359 124
-46 31 -61 36 -111 36 -54 0 -58 -2 -70 -29 -16 -40 -9 -73 19 -87 l24 -12
-34 -18 c-19 -10 -66 -19 -107 -22 l-74 -5 6 54 c17 143 44 504 38 507 -30 11
-32 19 -15 60 21 49 19 50 153 -19 120 -62 247 -164 345 -278 l76 -88 62 10
c97 14 252 83 325 144 43 36 53 217 21 387 l-13 69 -51 23 c-99 45 -200 65
-333 64 -68 0 -140 -3 -160 -6 -32 -5 -41 -2 -67 26 l-29 31 -17 -22 -17 -22
-96 28 -96 28 0 35 c0 59 -22 112 -66 161 -42 47 -43 49 -54 152 -9 94 -8 113
10 184 56 224 190 372 383 421 80 21 308 25 384 6 40 -9 43 -8 89 33 l47 43
36 -15 c20 -8 57 -31 83 -49z m984 -449 c78 -44 83 -49 78 -74 -4 -14 -12 -32
-18 -40 -20 -26 -76 -42 -119 -36 l-42 6 -35 -68 c-66 -129 -90 -89 -97 163
-3 95 -3 184 1 199 7 26 7 26 78 -39 39 -35 108 -85 154 -111z m8177 -35 c75
-83 107 -224 87 -386 -18 -147 -26 -168 -69 -187 -23 -11 -47 -33 -65 -62 -17
-27 -36 -45 -47 -45 -11 0 -19 4 -19 10 0 5 -13 16 -29 24 -39 21 -48 92 -19
150 35 69 11 140 -68 195 -44 31 -61 109 -34 161 41 80 155 190 196 190 14 0
39 -19 67 -50z m-4169 -247 c39 -31 75 -59 79 -63 5 -4 1 -33 -9 -65 -24 -83
-16 -191 20 -271 l28 -61 74 -5 c53 -4 83 -11 102 -25 36 -25 73 -100 70 -138
-5 -48 -52 -56 -343 -61 -206 -3 -260 -1 -304 12 -60 17 -106 57 -117 99 -8
33 2 40 62 49 186 25 287 188 270 434 -3 53 -9 109 -12 125 -4 15 -3 27 1 27
4 0 40 -25 79 -57z"/>
<path d="M14041 8699 c-25 -5 -66 -16 -92 -24 -43 -15 -54 -15 -123 -1 -110
23 -112 23 -140 -31 -59 -118 -70 -174 -73 -378 -1 -104 -5 -223 -9 -263 -9
-103 -1 -111 125 -114 285 -7 348 1 451 52 57 29 136 105 163 156 44 86 71
257 59 383 l-7 73 -55 21 c-38 14 -72 38 -113 79 -64 63 -81 68 -186 47z"/>
<path d="M11889 8492 c-8 -4 -31 -25 -51 -47 -38 -43 -103 -81 -156 -91 -41
-8 -53 -42 -59 -168 l-6 -99 -37 -33 c-41 -37 -97 -138 -125 -221 l-17 -53 50
-57 c48 -55 51 -62 62 -141 46 -337 219 -513 541 -552 86 -10 100 -9 159 9 61
19 68 24 97 73 50 82 102 201 125 286 17 62 22 106 22 227 0 174 -13 237 -78
380 -36 81 -41 97 -39 163 l1 72 -38 0 c-21 0 -51 3 -68 6 -27 5 -31 11 -37
53 -21 144 -92 201 -245 200 -47 0 -92 -3 -101 -7z"/>
<path d="M6160 9624 c-117 -12 -338 -33 -1105 -104 -176 -17 -390 -37 -475
-45 -85 -8 -231 -22 -325 -30 -93 -9 -237 -22 -320 -30 -82 -8 -296 -28 -475
-45 -179 -17 -467 -44 -640 -60 -173 -16 -583 -54 -910 -85 -773 -71 -906 -84
-957 -91 l-42 -5 4 -42 c3 -23 28 -321 55 -662 76 -939 99 -1213 124 -1525 14
-157 44 -522 67 -812 l43 -528 23 0 c22 0 663 59 1423 130 179 17 494 46 700
66 206 19 661 61 1010 94 349 33 950 89 1335 125 385 36 743 69 795 75 52 5
114 11 138 12 51 2 49 -34 17 348 -13 162 -38 464 -54 670 -17 206 -33 402
-36 435 -5 54 -43 523 -135 1645 -17 206 -33 399 -37 428 l-6 52 -46 -1 c-25
-1 -102 -7 -171 -15z m-1052 -944 c141 -71 211 -221 212 -451 l0 -97 -59 -60
-58 -60 -42 18 c-63 29 -83 69 -77 158 2 40 0 72 -5 72 -17 0 -70 84 -81 128
-9 38 -14 43 -32 37 -98 -28 -168 -37 -276 -32 -63 3 -137 3 -163 -1 l-49 -7
46 -32 c31 -22 46 -40 46 -54 0 -21 -2 -22 -112 -16 -62 2 -120 8 -129 12 -15
5 -17 -5 -21 -82 -2 -56 1 -104 10 -133 16 -54 20 -220 8 -309 l-8 -64 46 6
c85 12 123 43 151 124 10 30 19 38 40 40 15 1 36 10 47 20 24 22 61 93 78 151
7 23 16 42 19 42 11 -1 174 -50 178 -54 2 -2 5 -57 7 -122 2 -95 8 -139 30
-216 16 -54 25 -104 22 -110 -4 -7 -21 -37 -40 -66 l-33 -53 -114 -3 c-130 -4
-309 -33 -309 -51 0 -13 35 -47 64 -62 16 -9 14 -11 -17 -17 -41 -8 -81 -44
-96 -88 -11 -31 -11 -31 9 -13 19 17 20 17 30 -9 22 -59 22 -71 -4 -95 -35
-33 -42 -79 -21 -146 l18 -56 41 5 c23 3 77 8 121 11 108 9 257 38 330 66 35
13 76 38 98 59 31 31 37 45 37 78 0 23 -7 57 -16 75 -16 33 -16 36 6 65 12 16
25 51 27 76 5 42 12 52 69 103 l64 56 78 -12 c114 -18 112 -17 112 -59 0 -64
20 -164 49 -250 16 -45 25 -85 20 -88 -5 -3 -9 -16 -9 -29 0 -13 -7 -50 -15
-82 -8 -31 -15 -80 -15 -107 0 -39 -7 -62 -32 -102 -31 -52 -32 -53 -102 -66
-82 -15 -250 -15 -421 -1 -90 7 -162 6 -290 -5 -166 -14 -171 -15 -195 -42
-25 -28 -26 -28 -98 -20 -86 9 -194 -1 -278 -28 -59 -18 -63 -18 -77 -2 -8 10
-21 20 -28 22 -19 6 -17 125 3 163 42 79 114 115 241 123 48 2 87 8 87 11 0 3
-10 53 -21 111 -15 73 -22 145 -23 235 -1 120 1 134 24 180 28 55 78 95 121
95 l27 0 -48 73 c-114 173 -168 341 -185 576 l-7 93 -45 20 c-63 28 -137 33
-208 15 -33 -8 -67 -17 -75 -19 -10 -2 -19 13 -29 52 l-14 56 36 48 c21 26 37
52 37 56 0 21 88 32 207 27 70 -3 136 -2 155 4 18 6 94 14 168 18 74 5 160 16
190 25 114 33 272 57 342 50 62 -6 69 -5 100 20 42 33 52 33 126 -4z m-1763
-160 c45 -14 112 -23 186 -27 l116 -6 12 -56 c7 -31 14 -63 16 -71 3 -10 -10
-21 -34 -33 -79 -36 -135 -139 -174 -317 -17 -79 -20 -133 -21 -318 -1 -245
-6 -223 57 -265 18 -12 18 -15 2 -77 -48 -185 -63 -388 -45 -593 13 -159 13
-159 -68 -198 -55 -25 -146 -23 -202 6 -42 21 -50 32 -50 66 0 39 -38 147 -73
209 -29 51 -31 61 -33 165 -2 119 -13 166 -65 268 -46 93 -48 94 -99 55 -47
-36 -68 -79 -69 -143 -1 -32 -8 -47 -42 -81 l-41 -42 11 -88 c32 -260 -5 -421
-107 -466 -53 -24 -107 -20 -188 13 -60 24 -60 24 -70 199 -4 58 -11 110 -16
117 -6 7 -17 90 -25 185 -12 151 -17 175 -34 188 -21 17 -38 73 -39 126 0 17
-7 37 -16 44 -13 12 -14 32 -8 141 l7 128 -33 58 c-32 56 -33 62 -34 176 l-1
117 -55 52 c-30 28 -90 80 -132 115 l-77 64 34 95 c19 52 37 99 40 103 2 5 28
1 57 -7 32 -9 115 -17 210 -19 l158 -5 9 -34 c14 -52 -2 -104 -46 -142 -21
-19 -37 -40 -35 -48 6 -31 -20 -123 -48 -167 l-29 -46 39 -58 c21 -32 67 -94
103 -137 l63 -80 -15 -40 c-17 -47 -22 -230 -6 -244 6 -6 45 -1 97 11 l87 20
17 63 c21 81 14 170 -21 257 -14 35 -25 66 -25 69 0 3 18 10 40 17 49 14 94
51 110 91 14 33 21 36 53 19 29 -16 152 -95 200 -130 l38 -28 -36 -17 c-53
-25 -52 -34 3 -34 l49 0 6 -77 c5 -86 33 -158 86 -231 l32 -43 22 33 c13 18
40 42 62 53 22 11 44 25 48 30 13 16 0 431 -17 515 -28 149 -83 258 -150 299
-30 19 -36 28 -35 54 2 55 12 73 74 126 41 36 66 50 80 47 11 -3 52 -14 90
-26z"/>
<path d="M2784 7583 c-11 -41 16 -105 49 -121 33 -16 97 -8 97 12 0 30 -23
126 -31 126 -4 0 -13 -17 -20 -37 l-12 -37 -38 42 -39 41 -6 -26z"/>
<path d="M18810 5484 c-176 -18 -952 -91 -3935 -370 -324 -30 -828 -77 -1120
-105 -291 -27 -746 -70 -1010 -94 -264 -25 -716 -67 -1005 -94 -289 -27 -946
-88 -1460 -136 -514 -48 -936 -89 -938 -90 -3 -3 17 -262 63 -820 13 -165 42
-523 64 -795 23 -272 43 -517 45 -545 3 -27 26 -309 51 -625 25 -316 48 -590
51 -608 6 -39 -11 -38 269 -12 263 24 1957 182 2730 255 692 65 1098 103 2030
190 385 35 720 67 745 70 25 2 313 30 640 60 327 30 665 62 750 70 85 8 373
35 640 60 267 25 629 59 805 75 176 17 390 37 475 45 85 8 256 24 380 36 124
12 226 22 227 23 1 1 -5 78 -13 171 -7 94 -41 503 -74 910 -92 1129 -118 1444
-155 1893 -19 227 -35 422 -35 433 0 23 -18 23 -220 3z m-1174 -835 c34 -16
77 -46 94 -66 l33 -37 -7 -88 c-3 -48 -12 -118 -20 -156 -8 -37 -13 -92 -12
-122 6 -154 5 -146 31 -158 24 -11 25 -15 25 -109 0 -54 7 -145 15 -202 14
-95 14 -107 -1 -129 -27 -41 -166 -182 -180 -182 -31 0 -90 217 -106 393 -11
120 -13 127 -34 127 -12 0 -26 6 -32 13 -14 18 -29 231 -18 263 8 24 5 31 -28
57 -36 29 -36 30 -36 105 -1 43 -5 97 -10 122 -8 45 -8 45 44 100 29 30 60 67
70 82 16 24 22 26 64 21 26 -3 75 -18 108 -34z m-1642 -245 c21 -13 35 -14
106 -3 301 44 517 -104 634 -432 51 -142 52 -151 22 -222 -14 -34 -30 -80 -35
-102 -9 -34 -18 -44 -58 -65 -55 -28 -212 -180 -237 -228 l-17 -32 59 -58 c87
-84 126 -172 141 -310 l6 -63 61 -3 c113 -7 186 -70 214 -187 15 -60 10 -68
-63 -100 -74 -34 -214 -34 -309 -1 l-68 24 0 41 c0 23 -7 83 -14 132 -43 282
-133 453 -274 522 -44 21 -74 28 -141 31 -47 2 -101 0 -120 -5 -26 -7 -54 -3
-115 13 -45 13 -94 25 -110 29 l-29 6 8 87 c13 145 13 156 -10 160 -31 6 -33
11 -45 104 -7 48 -24 138 -40 200 -20 80 -25 118 -19 131 6 10 9 34 7 54 -3
36 -4 37 -68 53 -36 9 -79 24 -96 33 -37 19 -94 66 -94 76 0 4 26 12 58 19 32
7 107 28 167 48 102 33 120 36 238 38 129 1 129 1 149 29 22 31 13 32 92 -19z
m-1760 -139 c49 -24 100 -74 127 -126 24 -48 49 -170 49 -241 0 -42 4 -53 30
-74 17 -15 32 -39 36 -60 5 -30 2 -39 -30 -74 -20 -22 -36 -44 -36 -49 0 -5
29 -6 63 -4 l64 5 12 -63 c21 -104 60 -217 113 -327 47 -97 66 -161 108 -364
l11 -58 49 0 c110 0 215 -71 261 -176 25 -55 20 -71 -36 -123 -101 -93 -240
-134 -392 -114 -84 11 -246 53 -260 67 -4 4 -1 41 6 84 7 42 13 93 12 112 0
19 -1 72 -1 117 0 45 -3 84 -7 86 -14 9 -84 -20 -128 -52 -33 -24 -57 -32
-111 -37 -98 -9 -106 -19 -29 -32 116 -19 174 -78 190 -193 7 -45 6 -46 -37
-78 -175 -129 -390 -153 -665 -73 -103 30 -106 34 -72 97 41 78 104 126 186
143 26 5 42 16 50 32 21 45 63 202 83 313 24 131 45 417 37 502 -5 50 -2 71
21 125 21 54 26 82 27 165 1 71 8 123 24 179 16 55 23 108 24 180 2 129 10
138 112 133 40 -2 87 -12 109 -22z m-1615 -184 c22 -18 82 -76 133 -130 51
-54 103 -102 116 -105 12 -4 22 -14 22 -22 0 -7 17 -24 37 -37 33 -21 38 -31
52 -93 15 -63 19 -70 47 -78 l31 -9 6 -121 c3 -67 11 -153 18 -193 12 -66 11
-74 -5 -92 -17 -18 -18 -32 -11 -133 28 -451 -150 -739 -525 -852 -91 -27
-180 -44 -245 -47 -43 -3 -83 18 -186 97 -230 176 -348 394 -349 640 0 79 -1
81 -36 115 l-35 34 6 105 c23 351 114 602 279 765 90 89 156 132 261 170 65
23 81 25 207 21 137 -4 137 -4 177 -35z m-2014 -177 c21 -14 34 -14 88 -5 328
57 567 -122 677 -505 l23 -82 -21 -44 c-11 -25 -27 -71 -36 -104 -8 -32 -19
-60 -23 -61 -62 -21 -246 -188 -282 -257 -14 -26 -13 -28 40 -75 86 -76 135
-183 148 -319 l6 -63 61 -3 c63 -4 125 -29 156 -63 24 -26 56 -101 64 -149 l6
-40 -63 -28 c-100 -46 -235 -45 -349 0 l-36 14 -13 121 c-32 305 -127 502
-279 576 -44 21 -74 28 -141 31 -47 2 -102 0 -121 -5 -26 -7 -52 -5 -100 9
-36 10 -84 22 -107 28 l-43 11 0 52 c1 29 7 83 14 120 l13 68 -29 6 c-15 3
-30 9 -32 12 -3 4 -10 45 -16 91 -6 47 -24 136 -40 199 -20 80 -26 120 -19
132 5 10 9 35 9 57 0 40 0 40 -47 47 -27 3 -70 17 -98 29 -49 22 -115 71 -115
85 0 4 28 13 63 20 34 7 109 28 167 48 97 32 115 35 233 36 128 2 129 2 149
30 22 31 13 32 93 -19z m7131 -639 c55 -16 121 -57 184 -113 l41 -37 -36 -90
c-75 -183 -138 -284 -201 -321 -53 -31 -82 -25 -126 24 -63 73 -147 308 -127
360 27 71 149 192 194 192 12 0 44 -7 71 -15z m-1998 -47 c102 -79 96 -68 76
-127 -22 -70 -15 -186 17 -262 l23 -57 67 -4 c40 -3 80 -13 100 -24 35 -21 67
-73 75 -126 6 -33 4 -35 -37 -48 -29 -10 -97 -15 -200 -16 -86 -1 -177 -4
-201 -8 -61 -9 -184 10 -232 37 -37 20 -87 90 -74 102 3 3 29 9 59 15 72 14
152 54 185 93 15 18 39 57 53 87 24 51 26 66 26 190 0 74 -3 150 -7 168 -4 17
-5 32 -3 32 3 0 36 -23 73 -52z m-5385 -505 c40 -31 76 -59 80 -63 5 -4 1 -29
-8 -55 -29 -86 -22 -178 21 -275 l25 -55 57 0 c31 0 71 -6 89 -13 40 -17 80
-75 89 -128 l6 -40 -44 -14 c-41 -14 -114 -17 -449 -21 -94 -2 -112 1 -162 24
-54 24 -78 49 -91 94 -6 19 -2 23 31 28 207 35 294 148 292 379 0 56 -4 122
-8 149 -4 26 -6 47 -4 47 2 0 36 -25 76 -57z"/>
<path d="M16099 4241 c-36 -10 -70 -20 -75 -24 -5 -3 -36 1 -69 9 -33 7 -76
14 -96 14 -34 0 -37 -3 -63 -60 -51 -116 -60 -163 -62 -350 -2 -96 -6 -206 -9
-245 -11 -104 -7 -106 197 -112 287 -8 411 40 502 192 48 78 66 167 66 320 0
111 -2 126 -17 131 -62 19 -120 54 -159 96 -43 46 -47 48 -97 47 -29 0 -82 -8
-118 -18z"/>
<path d="M12318 3903 c-28 -3 -42 -11 -55 -34 -23 -38 -80 -78 -145 -99 -64
-21 -76 -47 -77 -169 l-1 -84 -48 -51 c-53 -56 -108 -159 -117 -222 -6 -36 -3
-43 39 -90 41 -47 45 -56 56 -133 29 -209 108 -350 250 -441 128 -82 355 -114
458 -63 32 15 45 34 93 129 85 168 104 247 103 424 0 167 -17 244 -82 383 -34
73 -38 90 -34 139 l4 55 -32 7 c-18 3 -48 6 -66 6 -29 0 -34 4 -34 23 0 38
-28 122 -51 151 -45 57 -144 83 -261 69z"/>
<path d="M10740 3749 c-25 -5 -61 -15 -80 -23 -31 -12 -44 -12 -99 0 -103 24
-121 19 -153 -46 -52 -104 -62 -160 -64 -350 0 -96 -4 -201 -9 -232 -9 -67 -2
-103 22 -113 38 -15 339 -16 411 -1 125 26 208 82 266 179 48 81 66 169 66
322 0 111 -2 126 -17 131 -64 20 -121 54 -158 96 -41 45 -46 48 -92 47 -26 -1
-68 -5 -93 -10z"/>
<path d="M8005 5039 c-275 -26 -626 -59 -780 -74 -154 -14 -372 -34 -485 -45
-113 -11 -257 -24 -320 -30 -63 -6 -207 -19 -320 -30 -113 -11 -257 -24 -320
-30 -63 -6 -207 -19 -320 -30 -113 -11 -257 -24 -320 -30 -63 -6 -207 -19
-320 -30 -113 -11 -279 -26 -370 -35 -91 -8 -311 -29 -490 -45 -179 -17 -467
-44 -640 -60 -486 -45 -949 -89 -1120 -105 -85 -8 -161 -15 -167 -15 -18 0
-17 -44 7 -326 32 -389 108 -1321 140 -1719 17 -203 32 -395 35 -425 6 -60 34
-411 61 -745 9 -115 18 -212 20 -214 2 -3 470 39 1109 99 116 11 356 34 535
50 179 17 442 42 585 55 143 14 404 38 580 55 176 16 536 50 800 75 264 24
845 79 1290 120 1405 131 1645 154 1645 159 0 2 -82 1004 -135 1656 -30 371
-64 788 -75 925 -12 138 -32 381 -45 540 -14 160 -25 293 -25 298 0 10 5 10
-555 -44z m-302 -819 c60 -23 89 -49 111 -101 l15 -35 -49 -17 c-70 -25 -130
-74 -159 -132 -24 -46 -26 -59 -26 -180 0 -91 6 -149 18 -193 14 -51 15 -75 7
-132 -7 -46 -6 -94 0 -143 21 -149 37 -382 29 -418 -6 -27 -1 -71 22 -175 48
-221 49 -199 -5 -214 -27 -7 -69 -10 -100 -7 l-54 5 -30 -42 c-32 -45 -108
-107 -178 -147 -41 -23 -42 -23 -117 -7 -42 9 -104 29 -139 43 -88 37 -156 55
-187 49 -23 -5 -29 1 -51 42 -13 25 -43 62 -66 81 -36 31 -44 44 -54 97 -7 33
-13 122 -15 196 -2 76 -10 165 -19 204 -10 43 -14 89 -10 120 5 41 1 62 -19
107 -24 53 -25 61 -15 121 9 52 9 84 -3 154 -8 49 -14 148 -14 221 l0 132 -35
17 c-49 23 -128 44 -172 44 -63 0 -68 5 -68 76 l0 63 45 31 c77 53 113 64 240
72 177 13 377 15 398 6 22 -11 22 -36 -2 -98 -26 -69 -74 -130 -142 -179 l-56
-41 -7 -183 c-15 -402 31 -734 129 -933 70 -142 175 -225 300 -235 39 -4 40
-3 113 90 l74 95 -9 90 c-4 50 -7 118 -6 151 4 166 3 233 -5 260 -7 23 -5 39
9 67 18 36 18 38 -1 82 -43 102 -58 178 -63 326 -3 80 -10 171 -17 202 -11 52
-16 58 -46 68 -54 18 -107 64 -136 116 l-27 50 29 51 c29 51 30 52 102 67 136
29 173 34 290 35 95 1 128 -3 171 -19z m-2105 -337 c73 -72 141 -135 152 -138
11 -4 20 -13 20 -21 0 -7 17 -25 39 -38 34 -22 39 -31 50 -85 13 -65 31 -91
62 -91 17 0 19 -8 19 -91 0 -50 8 -138 17 -195 16 -99 16 -104 -1 -123 -16
-18 -18 -33 -11 -138 8 -135 -6 -282 -37 -382 -56 -183 -173 -323 -339 -405
-108 -53 -250 -93 -360 -102 -84 -7 -98 -1 -220 92 -230 176 -348 394 -349
640 0 79 -1 81 -36 115 l-35 34 6 95 c37 535 218 840 570 956 27 9 86 12 180
11 l140 -2 133 -132z m-1561 -30 l93 -16 5 -36 c3 -20 12 -71 21 -114 8 -44
14 -80 12 -82 -18 -16 -121 -39 -195 -43 l-93 -4 0 -71 c0 -63 -5 -81 -49
-176 -120 -260 -169 -482 -178 -810 l-6 -204 39 9 c22 5 77 9 124 9 104 0 158
-23 239 -102 l54 -52 -31 -29 c-18 -17 -33 -43 -37 -66 l-8 -38 -92 3 -92 3
-43 -36 c-28 -24 -60 -41 -94 -48 -97 -21 -261 -32 -386 -25 -86 5 -134 3
-151 -5 -22 -10 -29 -8 -63 24 -20 20 -42 36 -48 36 -16 0 -3 141 15 176 36
67 95 104 168 104 25 0 155 -31 192 -45 15 -7 17 2 17 98 0 199 -49 373 -126
448 -26 25 -34 41 -34 68 0 70 -66 175 -139 221 -21 14 -26 32 -47 169 -14 94
-28 157 -36 162 -51 34 -160 45 -237 25 -35 -9 -64 -15 -65 -14 -1 2 -14 29
-29 61 -64 136 -12 275 126 337 35 16 45 16 110 3 177 -34 427 -26 636 19 58
12 126 20 172 19 71 -2 76 0 87 23 12 28 11 28 169 -1z"/>
<path d="M5200 3802 c-25 -5 -48 -21 -75 -50 -41 -46 -89 -75 -143 -87 -45 -9
-55 -34 -60 -150 l-5 -100 -49 -52 c-49 -53 -86 -121 -112 -206 l-14 -46 48
-54 c46 -51 49 -58 60 -138 40 -296 189 -463 458 -515 94 -18 164 -17 227 4
45 15 53 23 90 87 160 271 177 582 48 855 -30 63 -36 84 -34 136 l2 61 -32 7
c-17 3 -47 6 -65 6 -29 0 -34 4 -34 23 0 38 -28 122 -51 151 -45 57 -158 87
-259 68z"/>
<path d="M3426 3553 c-17 -34 -86 -103 -132 -135 -19 -13 -34 -26 -34 -30 0
-4 16 -29 36 -55 48 -62 86 -143 115 -243 31 -107 46 -115 93 -51 58 79 124
211 137 276 22 112 -9 180 -106 232 -74 40 -90 41 -109 6z"/>
</g>
</svg>
